<?xml version="1.0" encoding="utf-8"?>
<!-- Generator: Adobe Illustrator 23.0.1, SVG Export Plug-In . SVG Version: 6.00 Build 0)  -->
<svg version="1.1" id="Layer_1" xmlns="http://www.w3.org/2000/svg" xmlns:xlink="http://www.w3.org/1999/xlink" x="0px" y="0px"
	 viewBox="0 0 386.1 385.2" style="enable-background:new 0 0 386.1 385.2;" xml:space="preserve">
<style type="text/css">
	.st0{clip-path:url(#SVGID_2_);}
	.st1{clip-path:url(#SVGID_4_);fill:url(#SVGID_5_);}
	.st2{clip-path:url(#SVGID_7_);fill:url(#SVGID_8_);}
	.st3{clip-path:url(#SVGID_10_);fill:url(#SVGID_11_);}
	.st4{clip-path:url(#SVGID_13_);fill:url(#SVGID_14_);}
	.st5{clip-path:url(#SVGID_16_);fill:url(#SVGID_17_);}
	.st6{clip-path:url(#SVGID_19_);fill:url(#SVGID_20_);}
	.st7{clip-path:url(#SVGID_22_);fill:url(#SVGID_23_);}
	.st8{clip-path:url(#SVGID_25_);fill:url(#SVGID_26_);}
	.st9{clip-path:url(#SVGID_28_);fill:url(#SVGID_29_);}
	.st10{clip-path:url(#SVGID_31_);fill:#706F6E;}
	.st11{clip-path:url(#SVGID_33_);fill:url(#SVGID_34_);}
	.st12{clip-path:url(#SVGID_36_);fill:url(#SVGID_37_);}
	.st13{clip-path:url(#SVGID_39_);fill:url(#SVGID_40_);}
	.st14{clip-path:url(#SVGID_42_);fill:url(#SVGID_43_);}
	.st15{clip-path:url(#SVGID_45_);fill:url(#SVGID_46_);}
	.st16{fill:none;stroke:#CCCBCB;stroke-miterlimit:10;}
	.st17{fill:#C7CFE2;}
	.st18{fill:#028ED4;}
	.st19{fill:url(#SVGID_47_);}
	.st20{fill:url(#SVGID_48_);}
	.st21{fill:#FFFFFF;}
	.st22{fill:url(#SVGID_49_);}
	.st23{fill:url(#SVGID_50_);}
	.st24{fill:url(#SVGID_51_);}
	.st25{fill:url(#SVGID_52_);}
	.st26{fill:url(#SVGID_53_);}
	.st27{fill:url(#SVGID_54_);}
	.st28{fill:url(#SVGID_55_);}
	.st29{fill:url(#SVGID_56_);}
	.st30{fill:url(#SVGID_57_);}
	.st31{fill:url(#SVGID_58_);}
	.st32{fill:url(#SVGID_59_);}
	.st33{fill:url(#SVGID_60_);}
	.st34{fill:url(#SVGID_61_);}
	.st35{fill:url(#SVGID_62_);}
	.st36{fill:url(#SVGID_63_);}
	.st37{fill:url(#SVGID_64_);}
	.st38{fill:#1C1D1E;}
	.st39{clip-path:url(#SVGID_66_);}
	.st40{fill-rule:evenodd;clip-rule:evenodd;fill:#028ED4;}
	.st41{fill:#028ED4;stroke:#028ED4;stroke-width:0.5;stroke-miterlimit:10;}
</style>
<g>
	<polygon points="227.1,157.2 227.1,154.7 226.2,154.7 226.2,154.4 228.4,154.4 228.4,154.7 227.5,154.7 227.5,157.2 	"/>
	<g>
		<defs>
			<rect id="SVGID_1_" x="96.8" y="133.4" width="198.5" height="116.5"/>
		</defs>
		<clipPath id="SVGID_2_">
			<use xlink:href="#SVGID_1_"  style="overflow:visible;"/>
		</clipPath>
		<path class="st0" d="M228.8,157.2v-2.8h0.6l0.7,2c0.1,0.2,0.1,0.3,0.1,0.4c0-0.1,0.1-0.3,0.1-0.4l0.7-1.9h0.5v2.8h-0.4v-2.3
			l-0.8,2.3h-0.3l-0.8-2.4v2.4H228.8z"/>
	</g>
	<g>
		<defs>
			<path id="SVGID_3_" d="M162.8,219.3h0.6c0.5,0,0.8,0.1,1.1,0.2c0.3,0.1,0.4,0.4,0.4,0.9c0,0.7-0.5,1.1-1.5,1.1h-0.7V219.3z
				 M162.8,215.1h0.6c0.4,0,0.7,0.1,0.9,0.2c0.2,0.2,0.4,0.4,0.4,0.8c0,0.3-0.1,0.6-0.3,0.8c-0.2,0.2-0.5,0.3-0.9,0.3h-0.6V215.1z
				 M160.2,213.1v10.3h3.5c1.2,0,2.2-0.3,2.8-0.8c0.6-0.5,0.9-1.2,0.9-2.1c0-0.3,0-0.6-0.1-0.9c-0.1-0.3-0.2-0.5-0.3-0.7
				c-0.1-0.2-0.3-0.4-0.5-0.6c-0.2-0.2-0.4-0.3-0.7-0.4v0c0.4-0.2,0.7-0.5,1-0.8c0.2-0.4,0.4-0.8,0.4-1.3c0-0.7-0.2-1.2-0.6-1.6
				c-0.4-0.4-0.9-0.7-1.5-0.9c-0.6-0.2-1.3-0.3-2-0.3H160.2z"/>
		</defs>
		<clipPath id="SVGID_4_">
			<use xlink:href="#SVGID_3_"  style="overflow:visible;"/>
		</clipPath>
		
			<linearGradient id="SVGID_5_" gradientUnits="userSpaceOnUse" x1="-659.7113" y1="578.7679" x2="-658.9503" y2="578.7679" gradientTransform="matrix(0 2.1265 2.1265 0 -1066.892 1614.6699)">
			<stop  offset="0" style="stop-color:#1A8FCF"/>
			<stop  offset="1" style="stop-color:#313085"/>
		</linearGradient>
		<rect x="160.2" y="213.1" class="st1" width="7.2" height="10.3"/>
	</g>
	<g>
		<defs>
			<path id="SVGID_6_" d="M174.1,218.7c0,0.8-0.1,1.4-0.3,1.8c-0.2,0.4-0.7,0.6-1.4,0.6c-0.4,0-0.7-0.1-0.9-0.3
				c-0.2-0.2-0.4-0.4-0.5-0.7c-0.1-0.3-0.1-0.6-0.1-1v-5.9l-2.4,0v6.6c0,0.8,0.2,1.4,0.5,2c0.3,0.5,0.8,0.9,1.4,1.2
				c0.6,0.3,1.3,0.4,2,0.4c0.8,0,1.6-0.1,2.2-0.4c0.6-0.3,1.1-0.7,1.5-1.3c0.4-0.6,0.5-1.2,0.5-2v-6.4l-2.4,0V218.7z"/>
		</defs>
		<clipPath id="SVGID_7_">
			<use xlink:href="#SVGID_6_"  style="overflow:visible;"/>
		</clipPath>
		
			<linearGradient id="SVGID_8_" gradientUnits="userSpaceOnUse" x1="-659.7113" y1="577.4998" x2="-658.9503" y2="577.4998" gradientTransform="matrix(0 2.1265 2.1265 0 -1055.6094 1614.6699)">
			<stop  offset="0" style="stop-color:#1A8FCF"/>
			<stop  offset="1" style="stop-color:#313085"/>
		</linearGradient>
		<rect x="168.4" y="213.3" class="st2" width="8.1" height="10.1"/>
	</g>
	<g>
		<defs>
			<polygon id="SVGID_9_" points="177.4,213.3 177.4,223.3 179.8,223.3 179.8,213.3 			"/>
		</defs>
		<clipPath id="SVGID_10_">
			<use xlink:href="#SVGID_9_"  style="overflow:visible;"/>
		</clipPath>
		
			<linearGradient id="SVGID_11_" gradientUnits="userSpaceOnUse" x1="-659.7113" y1="576.5858" x2="-658.9503" y2="576.5858" gradientTransform="matrix(0 2.1265 2.1265 0 -1047.4751 1614.6699)">
			<stop  offset="0" style="stop-color:#1A8FCF"/>
			<stop  offset="1" style="stop-color:#313085"/>
		</linearGradient>
		<rect x="177.4" y="213.3" class="st3" width="2.4" height="10"/>
	</g>
	<g>
		<defs>
			<polygon id="SVGID_12_" points="180.7,213.1 180.7,223.2 185.7,223.2 186.4,220.9 183.2,220.9 183.2,213.1 			"/>
		</defs>
		<clipPath id="SVGID_13_">
			<use xlink:href="#SVGID_12_"  style="overflow:visible;"/>
		</clipPath>
		
			<linearGradient id="SVGID_14_" gradientUnits="userSpaceOnUse" x1="-659.7113" y1="575.855" x2="-658.9503" y2="575.855" gradientTransform="matrix(0 2.1265 2.1265 0 -1040.9741 1614.6699)">
			<stop  offset="0" style="stop-color:#1A8FCF"/>
			<stop  offset="1" style="stop-color:#313085"/>
		</linearGradient>
		<rect x="180.7" y="213.1" class="st4" width="5.6" height="10.1"/>
	</g>
	<g>
		<defs>
			<path id="SVGID_15_" d="M189.8,215.4h0.8c0.4,0,0.8,0.1,1.1,0.2c0.4,0.2,0.7,0.4,0.9,0.6c0.3,0.3,0.5,0.6,0.6,0.9
				c0.2,0.4,0.2,0.7,0.2,1.1c0,0.4-0.1,0.8-0.2,1.1c-0.1,0.4-0.4,0.7-0.6,1c-0.3,0.3-0.6,0.5-0.9,0.7c-0.4,0.2-0.7,0.2-1.1,0.2h-0.8
				V215.4z M187.3,213.2v10.3h3.5c0.7,0,1.4-0.1,2-0.4c0.6-0.3,1.2-0.6,1.7-1.1c0.5-0.5,0.9-1,1.1-1.6c0.3-0.6,0.4-1.3,0.4-2
				s-0.1-1.4-0.4-2c-0.3-0.6-0.6-1.2-1.1-1.6s-1-0.8-1.7-1.1c-0.6-0.3-1.3-0.4-2-0.4H187.3z"/>
		</defs>
		<clipPath id="SVGID_16_">
			<use xlink:href="#SVGID_15_"  style="overflow:visible;"/>
		</clipPath>
		
			<linearGradient id="SVGID_17_" gradientUnits="userSpaceOnUse" x1="-659.7113" y1="574.6573" x2="-658.9503" y2="574.6573" gradientTransform="matrix(0 2.1265 2.1265 0 -1030.3145 1614.6699)">
			<stop  offset="0" style="stop-color:#1A8FCF"/>
			<stop  offset="1" style="stop-color:#313085"/>
		</linearGradient>
		<rect x="187.3" y="213.2" class="st5" width="8.8" height="10.3"/>
	</g>
	<g>
		<defs>
			<polygon id="SVGID_18_" points="197,213.3 197,223.2 203.2,223.2 203.2,221.1 199.4,221.1 199.4,219.2 201.9,219.2 201.4,217.1 
				199.4,217.1 199.4,215.4 202.9,215.4 203,213.3 			"/>
		</defs>
		<clipPath id="SVGID_19_">
			<use xlink:href="#SVGID_18_"  style="overflow:visible;"/>
		</clipPath>
		
			<linearGradient id="SVGID_20_" gradientUnits="userSpaceOnUse" x1="-659.7113" y1="573.412" x2="-658.9503" y2="573.412" gradientTransform="matrix(0 2.1265 2.1265 0 -1019.2336 1614.6699)">
			<stop  offset="0" style="stop-color:#1A8FCF"/>
			<stop  offset="1" style="stop-color:#313085"/>
		</linearGradient>
		<rect x="197" y="213.3" class="st6" width="6.3" height="9.9"/>
	</g>
	<g>
		<defs>
			<path id="SVGID_21_" d="M209.6,217.7l1,1.9h-1.9L209.6,217.7z M208.4,215.3l-4.2,8h2.5l1-1.9h3.9l1,1.9h2.5l-4.2-8l-1.2-2.4
				L208.4,215.3z"/>
		</defs>
		<clipPath id="SVGID_22_">
			<use xlink:href="#SVGID_21_"  style="overflow:visible;"/>
		</clipPath>
		
			<linearGradient id="SVGID_23_" gradientUnits="userSpaceOnUse" x1="-659.7113" y1="572.0094" x2="-658.9503" y2="572.0094" gradientTransform="matrix(0 2.1265 2.1265 0 -1006.7526 1614.6699)">
			<stop  offset="0" style="stop-color:#1A8FCF"/>
			<stop  offset="1" style="stop-color:#313085"/>
		</linearGradient>
		<rect x="204.2" y="212.9" class="st7" width="10.9" height="10.4"/>
	</g>
	<g>
		<defs>
			<path id="SVGID_24_" d="M217.8,213.4c-0.5,0.2-0.9,0.6-1.2,1.1c-0.3,0.5-0.5,1-0.5,1.6c0,0.8,0.2,1.4,0.5,1.8
				c0.4,0.4,0.8,0.7,1.3,0.9c0.5,0.2,1,0.4,1.4,0.6c0.5,0.2,0.7,0.5,0.7,0.8c0,0.3-0.1,0.5-0.4,0.7c-0.2,0.2-0.5,0.2-0.8,0.2
				c-0.7,0-1.2-0.3-1.7-0.8l-1.3,1.9c0.4,0.4,0.9,0.7,1.4,0.9c0.5,0.2,1.1,0.3,1.6,0.3c1,0,1.8-0.3,2.4-0.9c0.6-0.6,1-1.4,1-2.4
				c0-0.8-0.2-1.5-0.5-1.9c-0.4-0.4-0.8-0.7-1.3-0.9c-0.5-0.2-1-0.4-1.4-0.6c-0.5-0.2-0.7-0.5-0.7-0.8c0-0.2,0.1-0.4,0.3-0.6
				c0.2-0.1,0.4-0.2,0.6-0.2c0.3,0,0.6,0.1,0.8,0.2c0.2,0.1,0.5,0.3,0.8,0.6l1.2-1.7c-0.4-0.4-0.8-0.6-1.3-0.8
				c-0.5-0.2-1-0.3-1.5-0.3C218.8,213.1,218.3,213.2,217.8,213.4"/>
		</defs>
		<clipPath id="SVGID_25_">
			<use xlink:href="#SVGID_24_"  style="overflow:visible;"/>
		</clipPath>
		
			<linearGradient id="SVGID_26_" gradientUnits="userSpaceOnUse" x1="-659.7113" y1="570.5961" x2="-658.9503" y2="570.5961" gradientTransform="matrix(0 2.1265 2.1265 0 -994.1758 1614.6699)">
			<stop  offset="0" style="stop-color:#1A8FCF"/>
			<stop  offset="1" style="stop-color:#313085"/>
		</linearGradient>
		<rect x="216" y="213.1" class="st8" width="6.4" height="10.3"/>
	</g>
	<g>
		<defs>
			<polygon id="SVGID_27_" points="227.2,216.2 225.5,212.9 222.9,213.6 226,218.6 226,223.3 228.5,223.3 228.5,218.7 231.7,213.4 
				229,212.9 			"/>
		</defs>
		<clipPath id="SVGID_28_">
			<use xlink:href="#SVGID_27_"  style="overflow:visible;"/>
		</clipPath>
		
			<linearGradient id="SVGID_29_" gradientUnits="userSpaceOnUse" x1="-659.7113" y1="569.3949" x2="-658.9503" y2="569.3949" gradientTransform="matrix(0 2.1265 2.1265 0 -983.4879 1614.6699)">
			<stop  offset="0" style="stop-color:#1A8FCF"/>
			<stop  offset="1" style="stop-color:#313085"/>
		</linearGradient>
		<rect x="222.9" y="212.9" class="st9" width="8.8" height="10.4"/>
	</g>
	<g>
		<defs>
			<rect id="SVGID_30_" x="96.8" y="133.4" width="198.5" height="116.5"/>
		</defs>
		<clipPath id="SVGID_31_">
			<use xlink:href="#SVGID_30_"  style="overflow:visible;"/>
		</clipPath>
		<polygon class="st10" points="164.5,227.8 164.5,229.5 164.1,229.5 164.1,227.8 162.9,225.4 163.4,225.4 164.3,227.4 165.3,225.4 
			165.7,225.4 		"/>
		<path class="st10" d="M169.2,229.1c-0.3,0.3-0.6,0.4-1,0.4c-0.4,0-0.8-0.1-1-0.4c-0.4-0.4-0.4-0.7-0.4-1.7c0-0.9,0-1.3,0.4-1.7
			c0.3-0.3,0.6-0.4,1-0.4c0.4,0,0.8,0.1,1,0.4c0.4,0.4,0.4,0.7,0.4,1.7C169.6,228.4,169.6,228.8,169.2,229.1 M168.9,226.1
			c-0.2-0.2-0.4-0.3-0.7-0.3c-0.3,0-0.5,0.1-0.7,0.3c-0.3,0.3-0.3,0.6-0.3,1.4c0,0.8,0,1.1,0.3,1.4c0.2,0.2,0.4,0.3,0.7,0.3
			c0.3,0,0.5-0.1,0.7-0.3c0.3-0.3,0.3-0.6,0.3-1.4C169.2,226.6,169.2,226.3,168.9,226.1"/>
		<path class="st10" d="M172.7,229.5c-0.8,0-1.4-0.6-1.4-1.4v-2.7h0.4v2.7c0,0.6,0.4,1,1,1s1-0.4,1-1v-2.7h0.4v2.7
			C174.1,229,173.5,229.5,172.7,229.5"/>
		<path class="st10" d="M178.2,229.5l-0.9-1.8h-1v1.8h-0.4v-4h1.6c0.7,0,1.2,0.4,1.2,1.1c0,0.6-0.4,1-0.9,1.1l1,1.8H178.2z
			 M177.4,225.8h-1.1v1.5h1.1c0.5,0,0.8-0.2,0.8-0.7S177.9,225.8,177.4,225.8"/>
		<path class="st10" d="M183.4,229.5c-0.6,0-1-0.2-1.4-0.5l0.3-0.3c0.3,0.3,0.6,0.4,1.1,0.4c0.6,0,1-0.3,1-0.8
			c0-0.2-0.1-0.4-0.2-0.5c-0.1-0.1-0.2-0.2-0.5-0.2l-0.5-0.1c-0.3-0.1-0.6-0.1-0.7-0.3c-0.2-0.2-0.3-0.4-0.3-0.8
			c0-0.7,0.5-1.1,1.3-1.1c0.5,0,0.9,0.1,1.2,0.4l-0.3,0.3c-0.2-0.2-0.5-0.4-0.9-0.4c-0.5,0-0.9,0.3-0.9,0.8c0,0.2,0.1,0.4,0.2,0.5
			c0.1,0.1,0.3,0.2,0.5,0.2l0.5,0.1c0.4,0.1,0.6,0.1,0.7,0.3c0.2,0.2,0.3,0.5,0.3,0.8C184.8,229.1,184.3,229.5,183.4,229.5"/>
		<polygon class="st10" points="189.4,229.5 189.4,226.4 188.3,228.9 188,228.9 186.8,226.4 186.8,229.5 186.4,229.5 186.4,225.4 
			186.8,225.4 188.2,228.3 189.4,225.4 189.9,225.4 189.9,229.5 		"/>
		<path class="st10" d="M194.1,229.5l-0.3-0.9H192l-0.3,0.9h-0.5l1.5-4h0.4l1.5,4H194.1z M192.9,226.1l-0.8,2.1h1.5L192.9,226.1z"/>
		<path class="st10" d="M198.2,229.5l-0.9-1.8h-1v1.8h-0.4v-4h1.6c0.7,0,1.2,0.4,1.2,1.1c0,0.6-0.4,1-0.9,1.1l1,1.8H198.2z
			 M197.4,225.8h-1.1v1.5h1.1c0.5,0,0.8-0.2,0.8-0.7S197.9,225.8,197.4,225.8"/>
		<polygon class="st10" points="201.4,225.8 201.4,229.5 201,229.5 201,225.8 199.8,225.8 199.8,225.4 202.6,225.4 202.6,225.8 		
			"/>
		<path class="st10" d="M207.4,229.5c-0.4,0-0.8-0.1-1-0.4c-0.4-0.4-0.4-0.7-0.4-1.7c0-0.9,0-1.3,0.4-1.7c0.2-0.3,0.6-0.4,1-0.4
			c0.7,0,1.3,0.4,1.4,1.2h-0.4c-0.1-0.5-0.5-0.8-1-0.8c-0.3,0-0.5,0.1-0.7,0.3c-0.3,0.3-0.3,0.6-0.3,1.4c0,0.8,0,1.1,0.3,1.4
			c0.2,0.2,0.4,0.3,0.7,0.3c0.5,0,0.9-0.3,1-0.8h0.4C208.6,229.1,208.1,229.5,207.4,229.5"/>
		<polygon class="st10" points="212.8,229.5 212.8,227.6 210.8,227.6 210.8,229.5 210.4,229.5 210.4,225.4 210.8,225.4 210.8,227.3 
			212.8,227.3 212.8,225.4 213.2,225.4 213.2,229.5 		"/>
		<path class="st10" d="M217.3,229.1c-0.2,0.3-0.6,0.4-1,0.4c-0.4,0-0.8-0.1-1-0.4c-0.4-0.4-0.4-0.7-0.4-1.7c0-0.9,0-1.3,0.4-1.7
			c0.2-0.3,0.6-0.4,1-0.4c0.4,0,0.8,0.1,1,0.4c0.4,0.4,0.4,0.7,0.4,1.7C217.7,228.4,217.7,228.8,217.3,229.1 M217,226.1
			c-0.2-0.2-0.4-0.3-0.7-0.3c-0.3,0-0.5,0.1-0.7,0.3c-0.3,0.3-0.3,0.6-0.3,1.4c0,0.8,0,1.1,0.3,1.4c0.2,0.2,0.4,0.3,0.7,0.3
			c0.3,0,0.5-0.1,0.7-0.3c0.3-0.3,0.3-0.6,0.3-1.4C217.3,226.6,217.2,226.3,217,226.1"/>
		<rect x="219.4" y="225.4" class="st10" width="0.4" height="4"/>
		<path class="st10" d="M223,229.5c-0.4,0-0.8-0.1-1-0.4c-0.4-0.4-0.4-0.7-0.4-1.7c0-0.9,0-1.3,0.4-1.7c0.3-0.3,0.6-0.4,1-0.4
			c0.7,0,1.3,0.4,1.4,1.2h-0.4c-0.1-0.5-0.5-0.8-1-0.8c-0.3,0-0.5,0.1-0.7,0.3c-0.3,0.3-0.3,0.6-0.3,1.4c0,0.8,0,1.1,0.3,1.4
			c0.2,0.2,0.4,0.3,0.7,0.3c0.5,0,0.9-0.3,1-0.8h0.4C224.2,229.1,223.7,229.5,223,229.5"/>
		<polygon class="st10" points="226,229.5 226,225.4 228.5,225.4 228.5,225.8 226.4,225.8 226.4,227.3 228.2,227.3 228.2,227.6 
			226.4,227.6 226.4,229.1 228.5,229.1 228.5,229.5 		"/>
	</g>
	<g>
		<defs>
			<path id="SVGID_32_" d="M167.8,196.8h1.9c1.4,0,2.5,0.2,3.2,0.6c0.8,0.4,1.1,1.3,1.1,2.6c0,2.1-1.4,3.1-4.3,3.1h-2V196.8z
				 M167.8,184.7h1.6c1,0,1.9,0.2,2.7,0.7c0.7,0.5,1.1,1.2,1.1,2.3c0,1-0.3,1.8-0.9,2.3c-0.6,0.5-1.5,0.8-2.6,0.8h-1.9V184.7z
				 M160.3,178.7v30.4h10.3c3.7,0,6.4-0.8,8.2-2.3c1.8-1.5,2.7-3.6,2.7-6.1c0-0.9-0.1-1.8-0.4-2.5c-0.2-0.8-0.6-1.5-1-2.1
				c-0.4-0.6-0.9-1.2-1.5-1.7c-0.6-0.5-1.3-0.9-1.9-1.2V193c1.2-0.5,2.2-1.4,2.9-2.5c0.7-1.1,1.1-2.4,1.1-3.9c0-1.9-0.5-3.5-1.6-4.7
				c-1.1-1.2-2.5-2-4.3-2.5c-1.8-0.5-3.7-0.7-5.9-0.7H160.3z"/>
		</defs>
		<clipPath id="SVGID_33_">
			<use xlink:href="#SVGID_32_"  style="overflow:visible;"/>
		</clipPath>
		
			<linearGradient id="SVGID_34_" gradientUnits="userSpaceOnUse" x1="-676.329" y1="236.6714" x2="-675.5679" y2="236.6714" gradientTransform="matrix(0 62.7765 62.7765 0 -14686.502 42613.4023)">
			<stop  offset="0" style="stop-color:#1A8FCF"/>
			<stop  offset="1" style="stop-color:#313085"/>
		</linearGradient>
		<rect x="160.3" y="178.7" class="st11" width="21.2" height="30.4"/>
	</g>
	<g>
		<defs>
			<polygon id="SVGID_35_" points="212.4,178.7 212.4,209.1 231.7,209.1 231.6,202.7 219.8,202.7 219.8,196.8 227.6,196.8 
				225.8,190.4 219.8,190.4 219.8,185.1 230.7,185.1 230.8,178.7 			"/>
		</defs>
		<clipPath id="SVGID_36_">
			<use xlink:href="#SVGID_35_"  style="overflow:visible;"/>
		</clipPath>
		
			<linearGradient id="SVGID_37_" gradientUnits="userSpaceOnUse" x1="-676.329" y1="236.4157" x2="-675.5679" y2="236.4157" gradientTransform="matrix(0 62.7765 62.7765 0 -14619.3213 42613.4023)">
			<stop  offset="0" style="stop-color:#1A8FCF"/>
			<stop  offset="1" style="stop-color:#313085"/>
		</linearGradient>
		<rect x="212.4" y="178.7" class="st12" width="19.3" height="30.4"/>
	</g>
	<g>
		<defs>
			<polygon id="SVGID_38_" points="180.2,173.8 180.2,209.1 186.4,209.1 186.4,170.2 			"/>
		</defs>
		<clipPath id="SVGID_39_">
			<use xlink:href="#SVGID_38_"  style="overflow:visible;"/>
		</clipPath>
		
			<linearGradient id="SVGID_40_" gradientUnits="userSpaceOnUse" x1="-676.329" y1="236.6096" x2="-675.5679" y2="236.6096" gradientTransform="matrix(0 62.7765 62.7765 0 -14670.249 42613.4023)">
			<stop  offset="0" style="stop-color:#1A8FCF"/>
			<stop  offset="1" style="stop-color:#313085"/>
		</linearGradient>
		<rect x="180.2" y="170.2" class="st13" width="6.2" height="38.9"/>
	</g>
	<g>
		<defs>
			<polygon id="SVGID_41_" points="189,159.4 189,171.7 195.1,175.2 195.1,209.1 198.5,209.1 198.5,155.6 209.3,160.3 198.2,153.8 
							"/>
		</defs>
		<clipPath id="SVGID_42_">
			<use xlink:href="#SVGID_41_"  style="overflow:visible;"/>
		</clipPath>
		
			<linearGradient id="SVGID_43_" gradientUnits="userSpaceOnUse" x1="-676.329" y1="236.5299" x2="-675.5679" y2="236.5299" gradientTransform="matrix(0 62.7765 62.7765 0 -14649.3252 42613.4023)">
			<stop  offset="0" style="stop-color:#1A8FCF"/>
			<stop  offset="1" style="stop-color:#313085"/>
		</linearGradient>
		<rect x="189" y="153.8" class="st14" width="20.3" height="55.2"/>
	</g>
	<g>
		<defs>
			<polygon id="SVGID_44_" points="204.3,168.8 204.3,209.1 211.1,209.1 211.1,165.8 217.5,168.4 210.6,164.2 			"/>
		</defs>
		<clipPath id="SVGID_45_">
			<use xlink:href="#SVGID_44_"  style="overflow:visible;"/>
		</clipPath>
		
			<linearGradient id="SVGID_46_" gradientUnits="userSpaceOnUse" x1="-676.329" y1="236.4715" x2="-675.5679" y2="236.4715" gradientTransform="matrix(0 62.7765 62.7765 0 -14633.9883 42613.4023)">
			<stop  offset="0" style="stop-color:#1A8FCF"/>
			<stop  offset="1" style="stop-color:#313085"/>
		</linearGradient>
		<rect x="204.3" y="164.2" class="st15" width="13.2" height="44.8"/>
	</g>
</g>
<circle class="st16" cx="194.2" cy="196.9" r="77.6"/>
<g>
	<path class="st17" d="M194.2,346.9c-82.7,0-150-67.3-150-150c0-82.7,67.3-150,150-150s150,67.3,150,150
		C344.2,279.6,277,346.9,194.2,346.9z M194.2,56.7c-77.3,0-140.2,62.9-140.2,140.2C54.1,274.2,117,337,194.2,337
		s140.2-62.9,140.2-140.2C334.4,119.6,271.5,56.7,194.2,56.7z"/>
</g>
<path class="st17" d="M141.5,56.5c0.7,3.3,1.7,6.4,3,9.4c15.5-5.9,32.3-9.1,49.8-9.1s34.3,3.2,49.8,9.1c1.3-3,2.3-6.2,3-9.4
	c-16.4-6.2-34.2-9.6-52.8-9.6S157.9,50.3,141.5,56.5z"/>
<path class="st17" d="M57.7,134.9c2.8,1.8,5.7,3.3,8.7,4.6c14.1-31.2,39.2-56.4,70.5-70.4c-1.2-3-2.8-6-4.6-8.8
	C99.3,75.3,72.7,101.9,57.7,134.9z"/>
<path class="st17" d="M54.1,196.9c0-17.6,3.3-34.4,9.2-49.9c-3-1.3-6.2-2.2-9.4-2.9c-6.2,16.4-9.6,34.3-9.6,52.8
	c0,18.5,3.4,36.3,9.6,52.7c3.2-0.7,6.4-1.7,9.4-2.9C57.3,231.2,54.1,214.4,54.1,196.9z"/>
<path class="st17" d="M132.2,333.5c1.8-2.8,3.3-5.7,4.6-8.7c-31.2-14.1-56.4-39.3-70.5-70.5c-3,1.3-6,2.8-8.7,4.6
	C72.6,291.8,99.3,318.4,132.2,333.5z"/>
<path class="st17" d="M247,337.3c-0.7-3.3-1.7-6.4-2.9-9.4c-15.5,5.9-32.3,9.2-49.8,9.2s-34.3-3.3-49.8-9.2c-1.3,3-2.2,6.2-2.9,9.4
	c16.4,6.2,34.2,9.6,52.8,9.6S230.6,343.5,247,337.3z"/>
<path class="st17" d="M330.9,258.8c-2.8-1.8-5.7-3.3-8.7-4.6c-14.1,31.2-39.2,56.4-70.5,70.5c1.2,3,2.8,5.9,4.6,8.7
	C289.2,318.4,315.9,291.8,330.9,258.8z"/>
<path class="st17" d="M334.7,249.6c6.2-16.4,9.6-34.2,9.6-52.7c0-18.6-3.4-36.4-9.6-52.8c-3.2,0.7-6.4,1.7-9.4,2.9
	c5.9,15.5,9.2,32.3,9.2,49.9c0,17.5-3.2,34.3-9.1,49.8C328.3,247.9,331.4,248.9,334.7,249.6z"/>
<path class="st17" d="M256.2,60.3c-1.8,2.8-3.3,5.7-4.6,8.8c31.2,14.1,56.4,39.2,70.5,70.4c3-1.2,6-2.8,8.7-4.6
	C315.8,101.9,289.2,75.3,256.2,60.3z"/>
<circle class="st18" cx="194.2" cy="119.3" r="5.6"/>
<circle class="st18" cx="222.2" cy="269.6" r="5.6"/>
<circle class="st18" cx="266.9" cy="170.4" r="5.6"/>
<circle class="st18" cx="124.3" cy="229.9" r="5.6"/>
<circle class="st18" cx="237.5" cy="133" r="5.6"/>
<circle class="st18" cx="166.2" cy="268.5" r="5.6"/>
<circle class="st18" cx="264.5" cy="230.5" r="5.6"/>
<circle class="st18" cx="143.9" cy="136.3" r="5.6"/>
<g>
	<linearGradient id="SVGID_47_" gradientUnits="userSpaceOnUse" x1="163.0788" y1="72.9655" x2="225.4057" y2="72.9655">
		<stop  offset="0" style="stop-color:#028ED4"/>
		<stop  offset="1" style="stop-color:#244A9C"/>
	</linearGradient>
	<polygon class="st19" points="225.4,73 194.2,104.1 163.1,73 194.2,41.8 	"/>
	<linearGradient id="SVGID_48_" gradientUnits="userSpaceOnUse" x1="149.2129" y1="45.0294" x2="239.2716" y2="45.0294">
		<stop  offset="0" style="stop-color:#028ED4"/>
		<stop  offset="1" style="stop-color:#244A9C"/>
	</linearGradient>
	<circle class="st20" cx="194.2" cy="45" r="45"/>
</g>
<circle class="st21" cx="194.2" cy="45" r="38.7"/>
<g>
	<linearGradient id="SVGID_49_" gradientUnits="userSpaceOnUse" x1="205.1931" y1="313.3532" x2="265.0032" y2="313.3532">
		<stop  offset="0" style="stop-color:#028ED4"/>
		<stop  offset="1" style="stop-color:#244A9C"/>
	</linearGradient>
	<polygon class="st22" points="205.2,322.1 226.3,283.4 265,304.6 243.9,343.3 	"/>
	<linearGradient id="SVGID_50_" gradientUnits="userSpaceOnUse" x1="197.9157" y1="340.1612" x2="287.998" y2="340.1612">
		<stop  offset="0" style="stop-color:#028ED4"/>
		<stop  offset="1" style="stop-color:#244A9C"/>
	</linearGradient>
	<circle class="st23" cx="243" cy="340.2" r="45"/>
</g>
<circle class="st21" cx="243" cy="340.2" r="38.7"/>
<g>
	<linearGradient id="SVGID_51_" gradientUnits="userSpaceOnUse" x1="281.9865" y1="170.3769" x2="344.3134" y2="170.3769">
		<stop  offset="0" style="stop-color:#028ED4"/>
		<stop  offset="1" style="stop-color:#244A9C"/>
	</linearGradient>
	<polygon class="st24" points="313.2,201.5 282,170.4 313.1,139.2 344.3,170.4 	"/>
	<linearGradient id="SVGID_52_" gradientUnits="userSpaceOnUse" x1="296.0567" y1="170.3766" x2="386.1155" y2="170.3766">
		<stop  offset="0" style="stop-color:#028ED4"/>
		<stop  offset="1" style="stop-color:#244A9C"/>
	</linearGradient>
	<circle class="st25" cx="341.1" cy="170.4" r="45"/>
</g>
<circle class="st21" cx="341.1" cy="170.4" r="38.7"/>
<g>
	<linearGradient id="SVGID_53_" gradientUnits="userSpaceOnUse" x1="57.3432" y1="253.0108" x2="111.2632" y2="253.0108">
		<stop  offset="0" style="stop-color:#028ED4"/>
		<stop  offset="1" style="stop-color:#244A9C"/>
	</linearGradient>
	<polygon class="st26" points="68.7,226.1 111.3,237.4 99.9,280 57.3,268.6 	"/>
	<linearGradient id="SVGID_54_" gradientUnits="userSpaceOnUse" x1="15.0984" y1="267.0228" x2="105.1721" y2="267.0228">
		<stop  offset="0" style="stop-color:#028ED4"/>
		<stop  offset="1" style="stop-color:#244A9C"/>
	</linearGradient>
	<circle class="st27" cx="60.1" cy="267" r="45"/>
</g>
<circle class="st21" cx="60.1" cy="267" r="38.7"/>
<g>
	<linearGradient id="SVGID_55_" gradientUnits="userSpaceOnUse" x1="247.4087" y1="99.8744" x2="291.4806" y2="99.8744">
		<stop  offset="0" style="stop-color:#028ED4"/>
		<stop  offset="1" style="stop-color:#244A9C"/>
	</linearGradient>
	<rect x="247.4" y="77.8" class="st28" width="44.1" height="44.1"/>
	<linearGradient id="SVGID_56_" gradientUnits="userSpaceOnUse" x1="244.1691" y1="80.1206" x2="334.2279" y2="80.1206">
		<stop  offset="0" style="stop-color:#028ED4"/>
		<stop  offset="1" style="stop-color:#244A9C"/>
	</linearGradient>
	<circle class="st29" cx="289.2" cy="80.1" r="45"/>
</g>
<circle class="st21" cx="289.2" cy="80.1" r="38.7"/>
<linearGradient id="SVGID_57_" gradientUnits="userSpaceOnUse" x1="120.0107" y1="309.8657" x2="175.8399" y2="309.8657">
	<stop  offset="0" style="stop-color:#028ED4"/>
	<stop  offset="1" style="stop-color:#244A9C"/>
</linearGradient>
<polygon class="st30" points="120,296 161.8,282 175.8,323.7 134.1,337.8 "/>
<linearGradient id="SVGID_58_" gradientUnits="userSpaceOnUse" x1="143.1217" y1="319.9968" x2="102.1176" y2="400.1795">
	<stop  offset="0" style="stop-color:#028ED4"/>
	<stop  offset="1" style="stop-color:#244A9C"/>
</linearGradient>
<circle class="st31" cx="135.5" cy="334.9" r="45"/>
<circle class="st21" cx="135.5" cy="334.9" r="38.7"/>
<g>
	<linearGradient id="SVGID_59_" gradientUnits="userSpaceOnUse" x1="272.162" y1="253.2557" x2="322.3967" y2="253.2557">
		<stop  offset="0" style="stop-color:#028ED4"/>
		<stop  offset="1" style="stop-color:#244A9C"/>
	</linearGradient>
	<polygon class="st32" points="278.8,278.4 272.2,234.8 315.7,228.1 322.4,271.7 	"/>
	<linearGradient id="SVGID_60_" gradientUnits="userSpaceOnUse" x1="274.7631" y1="269.792" x2="364.8279" y2="269.792">
		<stop  offset="0" style="stop-color:#028ED4"/>
		<stop  offset="1" style="stop-color:#244A9C"/>
	</linearGradient>
	<circle class="st33" cx="319.8" cy="269.8" r="45"/>
</g>
<circle class="st21" cx="319.8" cy="269.8" r="38.7"/>
<g>
	<linearGradient id="SVGID_61_" gradientUnits="userSpaceOnUse" x1="94.4056" y1="94.1975" x2="138.4779" y2="94.1975">
		<stop  offset="0" style="stop-color:#028ED4"/>
		<stop  offset="1" style="stop-color:#244A9C"/>
	</linearGradient>
	<polygon class="st34" points="138.5,72.2 138.5,116.2 94.4,116.2 94.4,72.2 	"/>
	<linearGradient id="SVGID_62_" gradientUnits="userSpaceOnUse" x1="51.6583" y1="74.4439" x2="141.7171" y2="74.4439">
		<stop  offset="0" style="stop-color:#028ED4"/>
		<stop  offset="1" style="stop-color:#244A9C"/>
	</linearGradient>
	<circle class="st35" cx="96.7" cy="74.4" r="45"/>
</g>
<circle class="st21" cx="96.7" cy="74.4" r="38.7"/>
<circle class="st18" cx="116.7" cy="183.3" r="5.6"/>
<g>
	<linearGradient id="SVGID_63_" gradientUnits="userSpaceOnUse" x1="41.9242" y1="172.742" x2="102.1076" y2="172.742">
		<stop  offset="0" style="stop-color:#028ED4"/>
		<stop  offset="1" style="stop-color:#244A9C"/>
	</linearGradient>
	<polygon class="st36" points="80.1,142.7 102.1,180.8 63.9,202.8 41.9,164.6 	"/>
	<linearGradient id="SVGID_64_" gradientUnits="userSpaceOnUse" x1="0" y1="165.4784" x2="90.0812" y2="165.4784">
		<stop  offset="0" style="stop-color:#028ED4"/>
		<stop  offset="1" style="stop-color:#244A9C"/>
	</linearGradient>
	<circle class="st37" cx="45" cy="165.5" r="45"/>
</g>
<circle class="st21" cx="45" cy="165.5" r="38.7"/>
<g>
	<path class="st38" d="M76.8,90.9v5.3h-1l-2.3-3.7v3.7h-1v-5.3h1.1l2.3,3.6v-3.6H76.8z"/>
	<path class="st38" d="M83.1,93.6c0,0.8-0.2,1.4-0.7,2s-1.1,0.8-1.9,0.8c-0.8,0-1.4-0.3-1.9-0.8s-0.7-1.2-0.7-2c0-0.8,0.2-1.4,0.7-2
		s1.1-0.8,1.9-0.8c0.8,0,1.4,0.3,1.9,0.8S83.1,92.8,83.1,93.6z M81.7,94.9c0.3-0.3,0.4-0.8,0.4-1.3s-0.1-1-0.4-1.3
		c-0.3-0.3-0.7-0.5-1.2-0.5c-0.5,0-0.9,0.2-1.2,0.5c-0.3,0.3-0.4,0.8-0.4,1.3s0.1,1,0.4,1.3c0.3,0.3,0.7,0.5,1.2,0.5
		C81,95.4,81.4,95.2,81.7,94.9z"/>
	<path class="st38" d="M92.5,90.9l-1.4,5.3h-1l-1.2-3.8l-1.2,3.8h-1l-1.4-5.3h1l0.9,3.8l1.1-3.8h1l1.1,3.8l0.9-3.8H92.5z"/>
	<path class="st38" d="M96.6,96.2L96.2,95H94l-0.4,1.2h-1l2-5.3h1.1l2,5.3H96.6z M94.3,94.1h1.5L95.1,92L94.3,94.1z"/>
	<path class="st38" d="M100.3,96.3c-0.6,0-1.1-0.2-1.5-0.5c-0.4-0.3-0.6-0.8-0.6-1.4h1c0,0.4,0.1,0.6,0.4,0.8
		c0.2,0.2,0.5,0.3,0.8,0.3c0.3,0,0.5-0.1,0.7-0.2s0.3-0.3,0.3-0.5c0-0.2-0.1-0.3-0.2-0.4c-0.1-0.1-0.2-0.2-0.4-0.2
		c-0.2,0-0.4-0.1-0.7-0.2c-0.3-0.1-0.6-0.2-0.9-0.3c-0.6-0.3-0.9-0.7-0.9-1.3c0-0.5,0.2-0.9,0.6-1.2c0.4-0.3,0.8-0.4,1.4-0.4
		s1,0.1,1.4,0.4c0.4,0.3,0.5,0.7,0.5,1.2h-1c0-0.5-0.4-0.8-1-0.8c-0.3,0-0.5,0.1-0.7,0.2c-0.2,0.1-0.3,0.3-0.3,0.5
		c0,0.2,0.1,0.4,0.3,0.5c0.2,0.1,0.4,0.2,0.8,0.3c0.3,0.1,0.7,0.2,0.9,0.3c0.2,0.1,0.5,0.2,0.7,0.4c0.2,0.2,0.3,0.5,0.3,0.9
		c0,0.5-0.2,0.9-0.6,1.2C101.3,96.2,100.9,96.3,100.3,96.3z"/>
	<path class="st38" d="M107.1,90.9v0.9h-1.7v4.3h-1v-4.3h-1.7v-0.9H107.1z"/>
	<path class="st38" d="M110.9,96.2l-0.4-1.2h-2.2l-0.4,1.2h-1l2-5.3h1.1l2,5.3H110.9z M108.6,94.1h1.5l-0.8-2.1L108.6,94.1z"/>
	<path class="st38" d="M114.6,93.4h2.5v2.8h-0.9v-0.6c-0.1,0.2-0.3,0.4-0.6,0.5c-0.3,0.1-0.6,0.2-1,0.2c-0.7,0-1.3-0.3-1.7-0.8
		s-0.7-1.2-0.7-2c0-0.8,0.2-1.5,0.7-2c0.5-0.5,1.1-0.8,1.9-0.8c0.6,0,1.2,0.2,1.6,0.5c0.4,0.3,0.7,0.8,0.7,1.4h-1
		c0-0.3-0.2-0.5-0.4-0.7c-0.2-0.2-0.5-0.3-0.9-0.3c-0.5,0-0.9,0.2-1.2,0.5c-0.3,0.4-0.4,0.8-0.4,1.3c0,0.5,0.1,1,0.4,1.3
		c0.3,0.3,0.7,0.5,1.2,0.5c0.4,0,0.7-0.1,0.9-0.3c0.2-0.2,0.4-0.5,0.4-0.8h-1.5V93.4z"/>
	<path class="st38" d="M122.1,96.2h-3.7v-5.3h3.5v0.9h-2.6v1.2h2.4V94h-2.4v1.3h2.7V96.2z"/>
</g>
<g>
	<path class="st38" d="M179,59.1l1.4,2.3h-1.1l-1.3-2.1h-0.9v2.1h-1v-5.3h2.2c0.6,0,1,0.2,1.3,0.5s0.5,0.7,0.5,1.1
		c0,0.3-0.1,0.6-0.3,0.9C179.6,58.8,179.4,59,179,59.1z M177.1,58.4h1.2c0.2,0,0.4-0.1,0.6-0.2c0.1-0.1,0.2-0.3,0.2-0.5
		c0-0.2-0.1-0.3-0.2-0.5c-0.1-0.1-0.3-0.2-0.5-0.2h-1.2V58.4z"/>
	<path class="st38" d="M185,61.4h-3.7v-5.3h3.5V57h-2.6v1.2h2.4v0.9h-2.4v1.3h2.7V61.4z"/>
	<path class="st38" d="M190.5,58.6c0,0.5-0.1,0.9-0.3,1.3c-0.2,0.4-0.5,0.8-0.9,1c-0.4,0.3-0.9,0.4-1.5,0.4H186v-5.3h1.8
		c0.8,0,1.5,0.2,1.9,0.7C190.2,57.3,190.5,57.9,190.5,58.6z M189.5,58.6c0-0.5-0.1-0.8-0.4-1.2c-0.3-0.3-0.7-0.5-1.2-0.5H187v3.4
		h0.7c0.6,0,1-0.2,1.3-0.5S189.5,59.1,189.5,58.6z"/>
	<path class="st38" d="M194.7,56.1h1v3.2c0,0.7-0.2,1.2-0.6,1.6c-0.4,0.4-0.9,0.6-1.6,0.6s-1.2-0.2-1.6-0.6s-0.6-0.9-0.6-1.6v-3.2h1
		v3.2c0,0.4,0.1,0.7,0.3,0.9c0.2,0.2,0.5,0.3,0.9,0.3c0.4,0,0.6-0.1,0.8-0.3c0.2-0.2,0.3-0.5,0.3-0.9V56.1z"/>
	<path class="st38" d="M200.6,59.4h1c0,0.7-0.3,1.2-0.7,1.5c-0.4,0.4-1,0.5-1.6,0.5c-0.8,0-1.4-0.3-1.9-0.8c-0.5-0.5-0.7-1.2-0.7-2
		c0-0.5,0.1-1,0.3-1.4c0.2-0.4,0.5-0.8,0.9-1c0.4-0.3,0.9-0.4,1.4-0.4c0.6,0,1.2,0.2,1.6,0.5c0.4,0.3,0.7,0.8,0.7,1.4h-1
		c0-0.3-0.2-0.5-0.4-0.7c-0.2-0.2-0.5-0.3-0.9-0.3c-0.5,0-0.9,0.2-1.2,0.5c-0.3,0.3-0.4,0.8-0.4,1.3c0,0.5,0.1,1,0.4,1.3
		c0.3,0.3,0.7,0.5,1.2,0.5c0.4,0,0.7-0.1,0.9-0.3C200.5,60.1,200.6,59.8,200.6,59.4z"/>
	<path class="st38" d="M206.4,61.4h-3.7v-5.3h3.5V57h-2.6v1.2h2.4v0.9h-2.4v1.3h2.7V61.4z"/>
	<path class="st38" d="M211.8,58.6c0,0.5-0.1,0.9-0.3,1.3c-0.2,0.4-0.5,0.8-0.9,1c-0.4,0.3-0.9,0.4-1.5,0.4h-1.7v-5.3h1.8
		c0.8,0,1.5,0.2,1.9,0.7C211.6,57.3,211.8,57.9,211.8,58.6z M210.8,58.6c0-0.5-0.1-0.8-0.4-1.2c-0.3-0.3-0.7-0.5-1.2-0.5h-0.8v3.4
		h0.7c0.6,0,1-0.2,1.3-0.5S210.8,59.1,210.8,58.6z"/>
	<path class="st38" d="M182.1,68.1V69h-3.5v-5.3h1v4.3H182.1z"/>
	<path class="st38" d="M186.7,69l-0.4-1.2H184l-0.4,1.2h-1l2-5.3h1.1l2,5.3H186.7z M184.3,66.9h1.5l-0.8-2.1L184.3,66.9z"/>
	<path class="st38" d="M190.9,69h-2.3v-5.3h2.4c0.4,0,0.8,0.1,1.1,0.4s0.4,0.6,0.4,0.9c0,0.3-0.1,0.5-0.2,0.7
		c-0.1,0.2-0.3,0.4-0.6,0.5c0.4,0.1,0.6,0.3,0.8,0.5s0.3,0.5,0.3,0.8c0,0.4-0.2,0.8-0.5,1.1C191.9,68.9,191.5,69,190.9,69z
		 M189.6,65.9h1.2c0.2,0,0.4-0.1,0.5-0.2c0.1-0.1,0.2-0.3,0.2-0.4c0-0.2-0.1-0.3-0.2-0.4c-0.1-0.1-0.3-0.2-0.5-0.2h-1.2V65.9z
		 M191.7,67.4c0-0.2-0.1-0.3-0.2-0.5c-0.1-0.1-0.3-0.2-0.6-0.2h-1.3v1.4h1.2c0.3,0,0.5-0.1,0.6-0.2
		C191.6,67.8,191.7,67.6,191.7,67.4z"/>
	<path class="st38" d="M198.7,66.4c0,0.8-0.2,1.4-0.7,2s-1.1,0.8-1.9,0.8c-0.8,0-1.4-0.3-1.9-0.8s-0.7-1.2-0.7-2
		c0-0.8,0.2-1.4,0.7-2s1.1-0.8,1.9-0.8c0.8,0,1.4,0.3,1.9,0.8S198.7,65.6,198.7,66.4z M197.3,67.7c0.3-0.3,0.4-0.8,0.4-1.3
		s-0.1-1-0.4-1.3c-0.3-0.3-0.7-0.5-1.2-0.5c-0.5,0-0.9,0.2-1.2,0.5c-0.3,0.3-0.4,0.8-0.4,1.3s0.1,1,0.4,1.3c0.3,0.3,0.7,0.5,1.2,0.5
		C196.6,68.2,197,68.1,197.3,67.7z"/>
	<path class="st38" d="M203,63.8h1V67c0,0.7-0.2,1.2-0.6,1.6c-0.4,0.4-0.9,0.6-1.6,0.6s-1.2-0.2-1.6-0.6s-0.6-0.9-0.6-1.6v-3.2h1V67
		c0,0.4,0.1,0.7,0.3,0.9c0.2,0.2,0.5,0.3,0.9,0.3c0.4,0,0.6-0.1,0.8-0.3c0.2-0.2,0.3-0.5,0.3-0.9V63.8z"/>
	<path class="st38" d="M208.1,66.8l1.4,2.3h-1.1l-1.3-2.1h-0.9V69h-1v-5.3h2.2c0.6,0,1,0.2,1.3,0.5s0.5,0.7,0.5,1.1
		c0,0.3-0.1,0.6-0.3,0.9C208.7,66.5,208.4,66.6,208.1,66.8z M206.2,66h1.2c0.2,0,0.4-0.1,0.6-0.2c0.1-0.1,0.2-0.3,0.2-0.5
		c0-0.2-0.1-0.3-0.2-0.5c-0.1-0.1-0.3-0.2-0.5-0.2h-1.2V66z"/>
</g>
<g>
	<path class="st38" d="M269.7,96.2H266v-5.3h3.5v0.9H267v1.2h2.4V94H267v1.3h2.7V96.2z"/>
	<path class="st38" d="M271.7,94v2.2h-1v-5.3h3.5v0.9h-2.6v1.2h2.4V94H271.7z"/>
	<path class="st38" d="M276,94v2.2h-1v-5.3h3.5v0.9H276v1.2h2.4V94H276z"/>
	<path class="st38" d="M284.3,93.6c0,0.8-0.2,1.4-0.7,2s-1.1,0.8-1.9,0.8c-0.8,0-1.4-0.3-1.9-0.8s-0.7-1.2-0.7-2
		c0-0.8,0.2-1.4,0.7-2s1.1-0.8,1.9-0.8c0.8,0,1.4,0.3,1.9,0.8S284.4,92.8,284.3,93.6z M282.9,94.9c0.3-0.3,0.4-0.8,0.4-1.3
		s-0.1-1-0.4-1.3c-0.3-0.3-0.7-0.5-1.2-0.5c-0.5,0-0.9,0.2-1.2,0.5c-0.3,0.3-0.4,0.8-0.4,1.3s0.1,1,0.4,1.3c0.3,0.3,0.7,0.5,1.2,0.5
		C282.2,95.4,282.6,95.2,282.9,94.9z"/>
	<path class="st38" d="M288.3,93.9l1.4,2.3h-1.1l-1.3-2.1h-0.9v2.1h-1v-5.3h2.2c0.6,0,1,0.2,1.3,0.5s0.5,0.7,0.5,1.1
		c0,0.3-0.1,0.6-0.3,0.9C288.9,93.6,288.6,93.8,288.3,93.9z M286.4,93.2h1.2c0.2,0,0.4-0.1,0.6-0.2c0.1-0.1,0.2-0.3,0.2-0.5
		c0-0.2-0.1-0.3-0.2-0.5c-0.1-0.1-0.3-0.2-0.5-0.2h-1.2V93.2z"/>
	<path class="st38" d="M294.3,90.9v0.9h-1.7v4.3h-1v-4.3h-1.7v-0.9H294.3z"/>
	<path class="st38" d="M298.6,95.3v0.9h-3.5v-5.3h1v4.3H298.6z"/>
	<path class="st38" d="M303.1,96.2h-3.7v-5.3h3.5v0.9h-2.6v1.2h2.4V94h-2.4v1.3h2.7V96.2z"/>
	<path class="st38" d="M305.9,96.3c-0.6,0-1.1-0.2-1.5-0.5c-0.4-0.3-0.6-0.8-0.6-1.4h1c0,0.4,0.1,0.6,0.4,0.8
		c0.2,0.2,0.5,0.3,0.8,0.3c0.3,0,0.5-0.1,0.7-0.2s0.3-0.3,0.3-0.5c0-0.2-0.1-0.3-0.2-0.4c-0.1-0.1-0.2-0.2-0.4-0.2
		c-0.2,0-0.4-0.1-0.7-0.2c-0.3-0.1-0.6-0.2-0.9-0.3c-0.6-0.3-0.9-0.7-0.9-1.3c0-0.5,0.2-0.9,0.6-1.2c0.4-0.3,0.8-0.4,1.4-0.4
		s1,0.1,1.4,0.4c0.4,0.3,0.5,0.7,0.5,1.2h-1c0-0.5-0.4-0.8-1-0.8c-0.3,0-0.5,0.1-0.7,0.2c-0.2,0.1-0.3,0.3-0.3,0.5
		c0,0.2,0.1,0.4,0.3,0.5c0.2,0.1,0.4,0.2,0.8,0.3c0.3,0.1,0.7,0.2,0.9,0.3c0.2,0.1,0.5,0.2,0.7,0.4c0.2,0.2,0.3,0.5,0.3,0.9
		c0,0.5-0.2,0.9-0.6,1.2C307,96.2,306.5,96.3,305.9,96.3z"/>
	<path class="st38" d="M310.8,96.3c-0.6,0-1.1-0.2-1.5-0.5c-0.4-0.3-0.6-0.8-0.6-1.4h1c0,0.4,0.1,0.6,0.4,0.8
		c0.2,0.2,0.5,0.3,0.8,0.3c0.3,0,0.5-0.1,0.7-0.2s0.3-0.3,0.3-0.5c0-0.2-0.1-0.3-0.2-0.4c-0.1-0.1-0.2-0.2-0.4-0.2
		c-0.2,0-0.4-0.1-0.7-0.2c-0.3-0.1-0.6-0.2-0.9-0.3c-0.6-0.3-0.9-0.7-0.9-1.3c0-0.5,0.2-0.9,0.6-1.2c0.4-0.3,0.8-0.4,1.4-0.4
		s1,0.1,1.4,0.4c0.4,0.3,0.5,0.7,0.5,1.2h-1c0-0.5-0.4-0.8-1-0.8c-0.3,0-0.5,0.1-0.7,0.2c-0.2,0.1-0.3,0.3-0.3,0.5
		c0,0.2,0.1,0.4,0.3,0.5c0.2,0.1,0.4,0.2,0.8,0.3c0.3,0.1,0.7,0.2,0.9,0.3c0.2,0.1,0.5,0.2,0.7,0.4c0.2,0.2,0.3,0.5,0.3,0.9
		c0,0.5-0.2,0.9-0.6,1.2C311.8,96.2,311.3,96.3,310.8,96.3z"/>
	<path class="st38" d="M274.6,104c-0.6,0-1.1-0.2-1.5-0.5c-0.4-0.3-0.6-0.8-0.6-1.4h1c0,0.4,0.1,0.6,0.4,0.8
		c0.2,0.2,0.5,0.3,0.8,0.3c0.3,0,0.5-0.1,0.7-0.2s0.3-0.3,0.3-0.5c0-0.2-0.1-0.3-0.2-0.4c-0.1-0.1-0.2-0.2-0.4-0.2
		c-0.2,0-0.4-0.1-0.7-0.2c-0.3-0.1-0.6-0.2-0.9-0.3c-0.6-0.3-0.9-0.7-0.9-1.3c0-0.5,0.2-0.9,0.6-1.2c0.4-0.3,0.8-0.4,1.4-0.4
		s1,0.1,1.4,0.4c0.4,0.3,0.5,0.7,0.5,1.2h-1c0-0.5-0.4-0.8-1-0.8c-0.3,0-0.5,0.1-0.7,0.2c-0.2,0.1-0.3,0.3-0.3,0.5
		c0,0.2,0.1,0.4,0.3,0.5c0.2,0.1,0.4,0.2,0.8,0.3c0.3,0.1,0.7,0.2,0.9,0.3c0.2,0.1,0.5,0.2,0.7,0.4c0.2,0.2,0.3,0.5,0.3,0.9
		c0,0.5-0.2,0.9-0.6,1.2C275.6,103.8,275.2,104,274.6,104z"/>
	<path class="st38" d="M281.4,98.6v0.9h-1.7v4.3h-1v-4.3H277v-0.9H281.4z"/>
	<path class="st38" d="M286.9,101.2c0,0.8-0.2,1.4-0.7,2s-1.1,0.8-1.9,0.8c-0.8,0-1.4-0.3-1.9-0.8s-0.7-1.2-0.7-2
		c0-0.8,0.2-1.4,0.7-2s1.1-0.8,1.9-0.8c0.8,0,1.4,0.3,1.9,0.8S286.9,100.4,286.9,101.2z M285.4,102.5c0.3-0.3,0.4-0.8,0.4-1.3
		s-0.1-1-0.4-1.3c-0.3-0.3-0.7-0.5-1.2-0.5c-0.5,0-0.9,0.2-1.2,0.5c-0.3,0.3-0.4,0.8-0.4,1.3s0.1,1,0.4,1.3c0.3,0.3,0.7,0.5,1.2,0.5
		C284.7,103,285.1,102.9,285.4,102.5z"/>
	<path class="st38" d="M290.8,101.6l1.4,2.3h-1.1l-1.3-2.1h-0.9v2.1h-1v-5.3h2.2c0.6,0,1,0.2,1.3,0.5s0.5,0.7,0.5,1.1
		c0,0.3-0.1,0.6-0.3,0.9C291.4,101.3,291.1,101.5,290.8,101.6z M288.9,100.9h1.2c0.2,0,0.4-0.1,0.6-0.2c0.1-0.1,0.2-0.3,0.2-0.5
		c0-0.2-0.1-0.3-0.2-0.5c-0.1-0.1-0.3-0.2-0.5-0.2h-1.2V100.9z"/>
	<path class="st38" d="M296.8,103.9l-0.4-1.2h-2.2l-0.4,1.2h-1l2-5.3h1.1l2,5.3H296.8z M294.5,101.8h1.5l-0.8-2.1L294.5,101.8z"/>
	<path class="st38" d="M300.6,101h2.5v2.8h-0.9v-0.6c-0.1,0.2-0.3,0.4-0.6,0.5c-0.3,0.1-0.6,0.2-1,0.2c-0.7,0-1.3-0.3-1.7-0.8
		s-0.7-1.2-0.7-2c0-0.8,0.2-1.5,0.7-2c0.5-0.5,1.1-0.8,1.9-0.8c0.6,0,1.2,0.2,1.6,0.5c0.4,0.3,0.7,0.8,0.7,1.4h-1
		c0-0.3-0.2-0.5-0.4-0.7c-0.2-0.2-0.5-0.3-0.9-0.3c-0.5,0-0.9,0.2-1.2,0.5c-0.3,0.4-0.4,0.8-0.4,1.3c0,0.5,0.1,1,0.4,1.3
		c0.3,0.3,0.7,0.5,1.2,0.5c0.4,0,0.7-0.1,0.9-0.3c0.2-0.2,0.4-0.5,0.4-0.8h-1.5V101z"/>
	<path class="st38" d="M308,103.9h-3.7v-5.3h3.5v0.9h-2.6v1.2h2.4v0.9h-2.4v1.3h2.7V103.9z"/>
</g>
<g>
	<path class="st38" d="M316.1,187h1c0,0.7-0.3,1.2-0.7,1.5c-0.4,0.4-1,0.5-1.6,0.5c-0.8,0-1.4-0.3-1.9-0.8c-0.5-0.5-0.7-1.2-0.7-2
		c0-0.5,0.1-1,0.3-1.4c0.2-0.4,0.5-0.8,0.9-1c0.4-0.3,0.9-0.4,1.4-0.4c0.6,0,1.2,0.2,1.6,0.5c0.4,0.3,0.7,0.8,0.7,1.4h-1
		c0-0.3-0.2-0.5-0.4-0.7s-0.5-0.3-0.9-0.3c-0.5,0-0.9,0.2-1.2,0.5c-0.3,0.3-0.4,0.8-0.4,1.3c0,0.5,0.1,1,0.4,1.3
		c0.3,0.3,0.7,0.5,1.2,0.5c0.4,0,0.7-0.1,0.9-0.3C315.9,187.7,316.1,187.4,316.1,187z"/>
	<path class="st38" d="M323.2,186.3c0,0.8-0.2,1.4-0.7,2s-1.1,0.8-1.9,0.8c-0.8,0-1.4-0.3-1.9-0.8s-0.7-1.2-0.7-2
		c0-0.8,0.2-1.4,0.7-2c0.5-0.5,1.1-0.8,1.9-0.8c0.8,0,1.4,0.3,1.9,0.8C322.9,184.9,323.2,185.6,323.2,186.3z M321.7,187.7
		c0.3-0.3,0.4-0.8,0.4-1.3c0-0.5-0.1-1-0.4-1.3c-0.3-0.3-0.7-0.5-1.2-0.5c-0.5,0-0.9,0.2-1.2,0.5c-0.3,0.3-0.4,0.8-0.4,1.3
		c0,0.5,0.1,1,0.4,1.3c0.3,0.3,0.7,0.5,1.2,0.5C321,188.2,321.4,188,321.7,187.7z"/>
	<path class="st38" d="M329.7,183.7v5.3h-0.9v-3.7l-1.4,3.7h-0.9l-1.4-3.7v3.7h-0.9v-5.3h1.2l1.5,4l1.5-4H329.7z"/>
	<path class="st38" d="M335,185.3c0,0.5-0.2,0.9-0.5,1.2s-0.8,0.5-1.3,0.5H332v1.9h-1v-5.3h2.2c0.5,0,1,0.2,1.3,0.5
		C334.8,184.5,335,184.8,335,185.3z M333.8,185.9c0.1-0.1,0.2-0.3,0.2-0.5s-0.1-0.4-0.2-0.5c-0.1-0.1-0.3-0.2-0.6-0.2H332v1.5h1.2
		C333.4,186.1,333.6,186,333.8,185.9z"/>
	<path class="st38" d="M339.1,183.7h1v3.3c0,0.7-0.2,1.2-0.6,1.6c-0.4,0.4-0.9,0.6-1.6,0.6s-1.2-0.2-1.6-0.6s-0.6-0.9-0.6-1.6v-3.3
		h1v3.2c0,0.4,0.1,0.7,0.3,0.9c0.2,0.2,0.5,0.3,0.9,0.3c0.4,0,0.6-0.1,0.8-0.3c0.2-0.2,0.3-0.5,0.3-0.9V183.7z"/>
	<path class="st38" d="M345.2,183.7v0.9h-1.7v4.3h-1v-4.3h-1.7v-0.9H345.2z"/>
	<path class="st38" d="M349.7,189H346v-5.3h3.5v0.9H347v1.2h2.4v0.9H347v1.3h2.7V189z"/>
	<path class="st38" d="M353.6,186.7l1.4,2.3h-1.1l-1.3-2.1h-0.9v2.1h-1v-5.3h2.2c0.6,0,1,0.2,1.3,0.5s0.5,0.7,0.5,1.1
		c0,0.3-0.1,0.6-0.3,0.9C354.1,186.4,353.9,186.6,353.6,186.7z M351.7,186h1.2c0.2,0,0.4-0.1,0.6-0.2s0.2-0.3,0.2-0.5
		c0-0.2-0.1-0.3-0.2-0.5c-0.1-0.1-0.3-0.2-0.5-0.2h-1.2V186z"/>
	<path class="st38" d="M356.9,183.7v5.3h-1v-5.3H356.9z"/>
	<path class="st38" d="M360.1,189.1c-0.6,0-1.1-0.2-1.5-0.5c-0.4-0.3-0.6-0.8-0.6-1.4h1c0,0.4,0.1,0.6,0.4,0.8
		c0.2,0.2,0.5,0.3,0.8,0.3c0.3,0,0.5-0.1,0.7-0.2c0.2-0.1,0.3-0.3,0.3-0.5c0-0.2-0.1-0.3-0.2-0.4c-0.1-0.1-0.2-0.2-0.4-0.2
		c-0.2-0.1-0.4-0.1-0.7-0.2c-0.3-0.1-0.6-0.2-0.9-0.3c-0.6-0.3-0.9-0.7-0.9-1.3c0-0.5,0.2-0.9,0.6-1.2c0.4-0.3,0.8-0.4,1.4-0.4
		s1,0.1,1.4,0.4c0.4,0.3,0.5,0.7,0.5,1.2h-1c0-0.5-0.4-0.8-1-0.8c-0.3,0-0.5,0.1-0.7,0.2c-0.2,0.1-0.3,0.3-0.3,0.5
		c0,0.2,0.1,0.4,0.3,0.5s0.4,0.2,0.8,0.3c0.3,0.1,0.7,0.2,0.9,0.3c0.2,0.1,0.5,0.2,0.7,0.4c0.2,0.2,0.3,0.5,0.3,0.9
		c0,0.5-0.2,0.9-0.6,1.2C361.1,189,360.7,189.1,360.1,189.1z"/>
	<path class="st38" d="M366.8,189h-3.7v-5.3h3.5v0.9h-2.6v1.2h2.4v0.9h-2.4v1.3h2.7V189z"/>
	<path class="st38" d="M372.2,186.2c0,0.5-0.1,0.9-0.3,1.3c-0.2,0.4-0.5,0.8-0.9,1c-0.4,0.3-0.9,0.4-1.5,0.4h-1.7v-5.3h1.8
		c0.8,0,1.5,0.2,1.9,0.7S372.2,185.5,372.2,186.2z M371.2,186.2c0-0.5-0.1-0.8-0.4-1.2c-0.3-0.3-0.7-0.5-1.2-0.5h-0.8v3.4h0.7
		c0.6,0,1-0.2,1.3-0.5S371.2,186.7,371.2,186.2z"/>
	<path class="st38" d="M329.5,193c0,0.5-0.2,0.9-0.5,1.2s-0.8,0.5-1.3,0.5h-1.1v1.9h-1v-5.3h2.2c0.5,0,1,0.2,1.3,0.5
		C329.4,192.1,329.5,192.5,329.5,193z M328.3,193.6c0.1-0.1,0.2-0.3,0.2-0.5s-0.1-0.4-0.2-0.5c-0.1-0.1-0.3-0.2-0.6-0.2h-1.2v1.5
		h1.2C328,193.8,328.2,193.7,328.3,193.6z"/>
	<path class="st38" d="M333.4,196.6l-0.4-1.2h-2.2l-0.4,1.2h-1l2-5.3h1.1l2,5.3H333.4z M331.1,194.5h1.5l-0.8-2.1L331.1,194.5z"/>
	<path class="st38" d="M338.6,194.7h1c0,0.7-0.3,1.2-0.7,1.5c-0.4,0.4-1,0.5-1.6,0.5c-0.8,0-1.4-0.3-1.9-0.8c-0.5-0.5-0.7-1.2-0.7-2
		c0-0.5,0.1-1,0.3-1.4c0.2-0.4,0.5-0.8,0.9-1c0.4-0.3,0.9-0.4,1.4-0.4c0.6,0,1.2,0.2,1.6,0.5c0.4,0.3,0.7,0.8,0.7,1.4h-1
		c0-0.3-0.2-0.5-0.4-0.7s-0.5-0.3-0.9-0.3c-0.5,0-0.9,0.2-1.2,0.5c-0.3,0.3-0.4,0.8-0.4,1.3c0,0.5,0.1,1,0.4,1.3
		c0.3,0.3,0.7,0.5,1.2,0.5c0.4,0,0.7-0.1,0.9-0.3C338.5,195.3,338.6,195,338.6,194.7z"/>
	<path class="st38" d="M343.9,196.6l-1.6-2.3l-0.5,0.6v1.8h-1v-5.3h1v2.3l2.1-2.3h1.3l-2.1,2.2l2.2,3.1H343.9z"/>
	<path class="st38" d="M347,191.3v5.3h-1v-5.3H347z"/>
	<path class="st38" d="M352.7,191.3v5.3h-1l-2.3-3.7v3.7h-1v-5.3h1.1l2.3,3.6v-3.6H352.7z"/>
	<path class="st38" d="M356.2,193.8h2.5v2.8h-0.9V196c-0.1,0.2-0.3,0.4-0.6,0.5c-0.3,0.1-0.6,0.2-1,0.2c-0.7,0-1.3-0.3-1.7-0.8
		c-0.4-0.5-0.7-1.2-0.7-2c0-0.8,0.2-1.5,0.7-2c0.5-0.5,1.1-0.8,1.9-0.8c0.6,0,1.2,0.2,1.6,0.5c0.4,0.3,0.7,0.8,0.7,1.4h-1
		c0-0.3-0.2-0.5-0.4-0.7s-0.5-0.3-0.9-0.3c-0.5,0-0.9,0.2-1.2,0.5c-0.3,0.4-0.4,0.8-0.4,1.3c0,0.5,0.1,1,0.4,1.3
		c0.3,0.3,0.7,0.5,1.2,0.5c0.4,0,0.7-0.1,0.9-0.3c0.2-0.2,0.4-0.5,0.4-0.8h-1.5V193.8z"/>
</g>
<g>
	<path class="st38" d="M297.2,287.1h-3.7v-5.3h3.5v0.9h-2.6v1.2h2.4v0.9h-2.4v1.3h2.7V287.1z"/>
	<path class="st38" d="M301.6,285.2h1c0,0.7-0.3,1.2-0.7,1.5c-0.4,0.4-1,0.5-1.6,0.5c-0.8,0-1.4-0.3-1.9-0.8c-0.5-0.5-0.7-1.2-0.7-2
		c0-0.5,0.1-1,0.3-1.4c0.2-0.4,0.5-0.8,0.9-1c0.4-0.3,0.9-0.4,1.4-0.4c0.6,0,1.2,0.2,1.6,0.5c0.4,0.3,0.7,0.8,0.7,1.4h-1
		c0-0.3-0.2-0.5-0.4-0.7s-0.5-0.3-0.9-0.3c-0.5,0-0.9,0.2-1.2,0.5c-0.3,0.3-0.4,0.8-0.4,1.3c0,0.5,0.1,1,0.4,1.3
		c0.3,0.3,0.7,0.5,1.2,0.5c0.4,0,0.7-0.1,0.9-0.3C301.5,285.8,301.6,285.5,301.6,285.2z"/>
	<path class="st38" d="M308.7,284.5c0,0.8-0.2,1.4-0.7,2s-1.1,0.8-1.9,0.8c-0.8,0-1.4-0.3-1.9-0.8s-0.7-1.2-0.7-2
		c0-0.8,0.2-1.4,0.7-2c0.5-0.5,1.1-0.8,1.9-0.8c0.8,0,1.4,0.3,1.9,0.8C308.5,283,308.7,283.7,308.7,284.5z M307.3,285.8
		c0.3-0.3,0.4-0.8,0.4-1.3c0-0.5-0.1-1-0.4-1.3c-0.3-0.3-0.7-0.5-1.2-0.5c-0.5,0-0.9,0.2-1.2,0.5c-0.3,0.3-0.4,0.8-0.4,1.3
		c0,0.5,0.1,1,0.4,1.3c0.3,0.3,0.7,0.5,1.2,0.5C306.6,286.3,307,286.1,307.3,285.8z"/>
	<path class="st38" d="M312.5,284.9v2.2h-1v-5.3h3.5v0.9h-2.6v1.2h2.4v0.9H312.5z"/>
	<path class="st38" d="M318.7,284.8l1.4,2.3h-1.1l-1.3-2.1h-0.9v2.1h-1v-5.3h2.2c0.6,0,1,0.2,1.3,0.5s0.5,0.7,0.5,1.1
		c0,0.3-0.1,0.6-0.3,0.9C319.3,284.5,319.1,284.7,318.7,284.8z M316.8,284.1h1.2c0.2,0,0.4-0.1,0.6-0.2s0.2-0.3,0.2-0.5
		c0-0.2-0.1-0.3-0.2-0.5c-0.1-0.1-0.3-0.2-0.5-0.2h-1.2V284.1z"/>
	<path class="st38" d="M322,281.8v5.3h-1v-5.3H322z"/>
	<path class="st38" d="M327.1,287.1h-3.7v-5.3h3.5v0.9h-2.6v1.2h2.4v0.9h-2.4v1.3h2.7V287.1z"/>
	<path class="st38" d="M332.5,281.8v5.3h-1l-2.3-3.7v3.7h-1v-5.3h1.1l2.3,3.6v-3.6H332.5z"/>
	<path class="st38" d="M338.3,284.4c0,0.5-0.1,0.9-0.3,1.3c-0.2,0.4-0.5,0.8-0.9,1c-0.4,0.3-0.9,0.4-1.5,0.4h-1.7v-5.3h1.8
		c0.8,0,1.5,0.2,1.9,0.7S338.3,283.7,338.3,284.4z M337.3,284.4c0-0.5-0.1-0.8-0.4-1.2c-0.3-0.3-0.7-0.5-1.2-0.5h-0.8v3.4h0.7
		c0.6,0,1-0.2,1.3-0.5S337.3,284.9,337.3,284.4z"/>
	<path class="st38" d="M342.8,286.2v0.9h-3.5v-5.3h1v4.3H342.8z"/>
	<path class="st38" d="M346.5,281.8h1.1l-1.9,3.3v2h-1v-2l-1.9-3.3h1.1l1.3,2.4L346.5,281.8z"/>
</g>
<g>
	<path class="st38" d="M220.7,355.3c-0.6,0-1.1-0.2-1.5-0.5c-0.4-0.3-0.6-0.8-0.6-1.4h1c0,0.4,0.1,0.6,0.4,0.8
		c0.2,0.2,0.5,0.3,0.8,0.3c0.3,0,0.5-0.1,0.7-0.2c0.2-0.1,0.3-0.3,0.3-0.5c0-0.2-0.1-0.3-0.2-0.4c-0.1-0.1-0.2-0.2-0.4-0.2
		c-0.2-0.1-0.4-0.1-0.7-0.2c-0.3-0.1-0.6-0.2-0.9-0.3c-0.6-0.3-0.9-0.7-0.9-1.3c0-0.5,0.2-0.9,0.6-1.2c0.4-0.3,0.8-0.4,1.4-0.4
		s1,0.1,1.4,0.4c0.4,0.3,0.5,0.7,0.5,1.2h-1c0-0.5-0.4-0.8-1-0.8c-0.3,0-0.5,0.1-0.7,0.2c-0.2,0.1-0.3,0.3-0.3,0.5
		c0,0.2,0.1,0.4,0.3,0.5s0.4,0.2,0.8,0.3c0.3,0.1,0.7,0.2,0.9,0.3c0.2,0.1,0.5,0.2,0.7,0.4c0.2,0.2,0.3,0.5,0.3,0.9
		c0,0.5-0.2,0.9-0.6,1.2C221.8,355.2,221.3,355.3,220.7,355.3z"/>
	<path class="st38" d="M227.3,355.2l-0.4-1.2h-2.2l-0.4,1.2h-1l2-5.3h1.1l2,5.3H227.3z M224.9,353.1h1.5l-0.8-2.1L224.9,353.1z"/>
	<path class="st38" d="M232,349.9h1l-1.9,5.3h-0.9l-1.9-5.3h1l1.3,3.9L232,349.9z"/>
	<path class="st38" d="M237.6,355.2h-3.7v-5.3h3.5v0.9h-2.6v1.2h2.4v0.9h-2.4v1.3h2.7V355.2z"/>
	<path class="st38" d="M240.4,355.3c-0.6,0-1.1-0.2-1.5-0.5c-0.4-0.3-0.6-0.8-0.6-1.4h1c0,0.4,0.1,0.6,0.4,0.8
		c0.2,0.2,0.5,0.3,0.8,0.3c0.3,0,0.5-0.1,0.7-0.2c0.2-0.1,0.3-0.3,0.3-0.5c0-0.2-0.1-0.3-0.2-0.4c-0.1-0.1-0.2-0.2-0.4-0.2
		c-0.2-0.1-0.4-0.1-0.7-0.2c-0.3-0.1-0.6-0.2-0.9-0.3c-0.6-0.3-0.9-0.7-0.9-1.3c0-0.5,0.2-0.9,0.6-1.2c0.4-0.3,0.8-0.4,1.4-0.4
		s1,0.1,1.4,0.4c0.4,0.3,0.5,0.7,0.5,1.2h-1c0-0.5-0.4-0.8-1-0.8c-0.3,0-0.5,0.1-0.7,0.2c-0.2,0.1-0.3,0.3-0.3,0.5
		c0,0.2,0.1,0.4,0.3,0.5s0.4,0.2,0.8,0.3c0.3,0.1,0.7,0.2,0.9,0.3c0.2,0.1,0.5,0.2,0.7,0.4c0.2,0.2,0.3,0.5,0.3,0.9
		c0,0.5-0.2,0.9-0.6,1.2C241.4,355.2,240.9,355.3,240.4,355.3z"/>
	<path class="st38" d="M248.7,349.9v0.9H247v4.3h-1v-4.3h-1.7v-0.9H248.7z"/>
	<path class="st38" d="M250.5,349.9v5.3h-1v-5.3H250.5z"/>
	<path class="st38" d="M257.3,349.9v5.3h-0.9v-3.7l-1.4,3.7h-0.9l-1.4-3.7v3.7h-0.9v-5.3h1.2l1.5,4l1.5-4H257.3z"/>
	<path class="st38" d="M262.4,355.2h-3.7v-5.3h3.5v0.9h-2.6v1.2h2.4v0.9h-2.4v1.3h2.7V355.2z"/>
	<path class="st38" d="M269,354.1l1.1,1.1H269l-0.5-0.5c-0.4,0.4-0.9,0.6-1.5,0.6c-0.5,0-1-0.1-1.3-0.4c-0.4-0.3-0.5-0.7-0.5-1.1
		c0-0.6,0.4-1.1,1.1-1.3l-0.1-0.1c-0.4-0.4-0.5-0.7-0.5-1.1c0-0.4,0.1-0.7,0.4-0.9c0.3-0.2,0.6-0.4,1.1-0.4c0.4,0,0.8,0.1,1.1,0.4
		c0.3,0.2,0.4,0.5,0.4,0.9c0,0.3-0.1,0.6-0.3,0.8c-0.2,0.2-0.4,0.4-0.8,0.5l1,1c0.1-0.2,0.1-0.4,0.1-0.8v-0.2h0.8v0.3
		C269.3,353.3,269.2,353.7,269,354.1z M267.9,354.2l-1.3-1.3c-0.4,0.2-0.7,0.4-0.7,0.8c0,0.2,0.1,0.4,0.3,0.6
		c0.2,0.1,0.4,0.2,0.7,0.2C267.4,354.5,267.7,354.4,267.9,354.2z M266.3,351.2c0,0.2,0.1,0.4,0.3,0.6l0.2,0.2
		c0.2-0.1,0.4-0.2,0.5-0.3s0.2-0.3,0.2-0.5c0-0.2-0.1-0.3-0.2-0.4c-0.1-0.1-0.3-0.2-0.5-0.2c-0.2,0-0.3,0.1-0.4,0.2
		C266.4,350.9,266.3,351.1,266.3,351.2z"/>
	<path class="st38" d="M236.3,357.6v5.3h-0.9v-3.7l-1.4,3.7h-0.9l-1.4-3.7v3.7h-0.9v-5.3h1.2l1.5,4l1.5-4H236.3z"/>
	<path class="st38" d="M242.6,360.2c0,0.8-0.2,1.4-0.7,2s-1.1,0.8-1.9,0.8c-0.8,0-1.4-0.3-1.9-0.8s-0.7-1.2-0.7-2
		c0-0.8,0.2-1.4,0.7-2c0.5-0.5,1.1-0.8,1.9-0.8c0.8,0,1.4,0.3,1.9,0.8C242.4,358.8,242.7,359.4,242.6,360.2z M241.2,361.5
		c0.3-0.3,0.4-0.8,0.4-1.3c0-0.5-0.1-1-0.4-1.3c-0.3-0.3-0.7-0.5-1.2-0.5c-0.5,0-0.9,0.2-1.2,0.5c-0.3,0.3-0.4,0.8-0.4,1.3
		c0,0.5,0.1,1,0.4,1.3c0.3,0.3,0.7,0.5,1.2,0.5C240.5,362,240.9,361.9,241.2,361.5z"/>
	<path class="st38" d="M248.1,357.6v5.3h-1l-2.3-3.7v3.7h-1v-5.3h1.1l2.3,3.6v-3.6H248.1z"/>
	<path class="st38" d="M253.1,362.8h-3.7v-5.3h3.5v0.9h-2.6v1.2h2.4v0.9h-2.4v1.3h2.7V362.8z"/>
	<path class="st38" d="M257.3,357.6h1.1l-1.9,3.3v2h-1v-2l-1.9-3.3h1.1l1.3,2.4L257.3,357.6z"/>
</g>
<g>
	<path class="st38" d="M116,352.7h-3.7v-5.3h3.5v0.9h-2.6v1.2h2.4v0.9h-2.4v1.3h2.7V352.7z"/>
	<path class="st38" d="M120.7,352.7l-0.4-1.2H118l-0.4,1.2h-1l2-5.3h1.1l2,5.3H120.7z M118.4,350.7h1.5l-0.8-2.1L118.4,350.7z"/>
	<path class="st38" d="M124.4,352.9c-0.6,0-1.1-0.2-1.5-0.5c-0.4-0.3-0.6-0.8-0.6-1.4h1c0,0.4,0.1,0.6,0.4,0.8
		c0.2,0.2,0.5,0.3,0.8,0.3c0.3,0,0.5-0.1,0.7-0.2c0.2-0.1,0.3-0.3,0.3-0.5c0-0.2-0.1-0.3-0.2-0.4c-0.1-0.1-0.2-0.2-0.4-0.2
		c-0.2-0.1-0.4-0.1-0.7-0.2c-0.3-0.1-0.6-0.2-0.9-0.3c-0.6-0.3-0.9-0.7-0.9-1.3c0-0.5,0.2-0.9,0.6-1.2c0.4-0.3,0.8-0.4,1.4-0.4
		s1,0.1,1.4,0.4c0.4,0.3,0.5,0.7,0.5,1.2h-1c0-0.5-0.4-0.8-1-0.8c-0.3,0-0.5,0.1-0.7,0.2c-0.2,0.1-0.3,0.3-0.3,0.5
		c0,0.2,0.1,0.4,0.3,0.5s0.4,0.2,0.8,0.3c0.3,0.1,0.7,0.2,0.9,0.3c0.2,0.1,0.5,0.2,0.7,0.4c0.2,0.2,0.3,0.5,0.3,0.9
		c0,0.5-0.2,0.9-0.6,1.2C125.4,352.7,124.9,352.9,124.4,352.9z"/>
	<path class="st38" d="M130.3,347.5h1.1l-1.9,3.3v2h-1v-2l-1.9-3.3h1.1l1.3,2.4L130.3,347.5z"/>
	<path class="st38" d="M137.6,347.5v0.9h-1.7v4.3h-1v-4.3h-1.7v-0.9H137.6z"/>
	<path class="st38" d="M143.1,350.1c0,0.8-0.2,1.4-0.7,2c-0.5,0.5-1.1,0.8-1.9,0.8c-0.8,0-1.4-0.3-1.9-0.8s-0.7-1.2-0.7-2
		c0-0.8,0.2-1.4,0.7-2c0.5-0.5,1.1-0.8,1.9-0.8c0.8,0,1.4,0.3,1.9,0.8C142.9,348.7,143.1,349.3,143.1,350.1z M141.7,351.4
		c0.3-0.3,0.4-0.8,0.4-1.3c0-0.5-0.1-1-0.4-1.3c-0.3-0.3-0.7-0.5-1.2-0.5c-0.5,0-0.9,0.2-1.2,0.5c-0.3,0.3-0.4,0.8-0.4,1.3
		c0,0.5,0.1,1,0.4,1.3c0.3,0.3,0.7,0.5,1.2,0.5C141,351.9,141.4,351.8,141.7,351.4z"/>
	<path class="st38" d="M149.1,347.5h1v3.3c0,0.7-0.2,1.2-0.6,1.6c-0.4,0.4-0.9,0.6-1.6,0.6s-1.2-0.2-1.6-0.6s-0.6-0.9-0.6-1.6v-3.3
		h1v3.2c0,0.4,0.1,0.7,0.3,0.9c0.2,0.2,0.5,0.3,0.9,0.3c0.4,0,0.6-0.1,0.8-0.3c0.2-0.2,0.3-0.5,0.3-0.9V347.5z"/>
	<path class="st38" d="M153.2,352.9c-0.6,0-1.1-0.2-1.5-0.5c-0.4-0.3-0.6-0.8-0.6-1.4h1c0,0.4,0.1,0.6,0.4,0.8
		c0.2,0.2,0.5,0.3,0.8,0.3c0.3,0,0.5-0.1,0.7-0.2c0.2-0.1,0.3-0.3,0.3-0.5c0-0.2-0.1-0.3-0.2-0.4c-0.1-0.1-0.2-0.2-0.4-0.2
		c-0.2-0.1-0.4-0.1-0.7-0.2c-0.3-0.1-0.6-0.2-0.9-0.3c-0.6-0.3-0.9-0.7-0.9-1.3c0-0.5,0.2-0.9,0.6-1.2c0.4-0.3,0.8-0.4,1.4-0.4
		s1,0.1,1.4,0.4c0.4,0.3,0.5,0.7,0.5,1.2h-1c0-0.5-0.4-0.8-1-0.8c-0.3,0-0.5,0.1-0.7,0.2c-0.2,0.1-0.3,0.3-0.3,0.5
		c0,0.2,0.1,0.4,0.3,0.5s0.4,0.2,0.8,0.3c0.3,0.1,0.7,0.2,0.9,0.3c0.2,0.1,0.5,0.2,0.7,0.4c0.2,0.2,0.3,0.5,0.3,0.9
		c0,0.5-0.2,0.9-0.6,1.2C154.2,352.7,153.7,352.9,153.2,352.9z"/>
	<path class="st38" d="M159.9,352.7h-3.7v-5.3h3.5v0.9h-2.6v1.2h2.4v0.9h-2.4v1.3h2.7V352.7z"/>
</g>
<g>
	<path class="st38" d="M43.8,283c-0.6,0-1.1-0.2-1.5-0.5c-0.4-0.3-0.6-0.8-0.6-1.4h1c0,0.4,0.1,0.6,0.4,0.8c0.2,0.2,0.5,0.3,0.8,0.3
		c0.3,0,0.5-0.1,0.7-0.2c0.2-0.1,0.3-0.3,0.3-0.5c0-0.2-0.1-0.3-0.2-0.4c-0.1-0.1-0.2-0.2-0.4-0.2c-0.2-0.1-0.4-0.1-0.7-0.2
		c-0.3-0.1-0.6-0.2-0.9-0.3c-0.6-0.3-0.9-0.7-0.9-1.3c0-0.5,0.2-0.9,0.6-1.2c0.4-0.3,0.8-0.4,1.4-0.4s1,0.1,1.4,0.4
		c0.4,0.3,0.5,0.7,0.5,1.2h-1c0-0.5-0.4-0.8-1-0.8c-0.3,0-0.5,0.1-0.7,0.2c-0.2,0.1-0.3,0.3-0.3,0.5c0,0.2,0.1,0.4,0.3,0.5
		s0.4,0.2,0.8,0.3c0.3,0.1,0.7,0.2,0.9,0.3c0.2,0.1,0.5,0.2,0.7,0.4c0.2,0.2,0.3,0.5,0.3,0.9c0,0.5-0.2,0.9-0.6,1.2
		C44.9,282.9,44.4,283,43.8,283z"/>
	<path class="st38" d="M50,277.6h1v3.3c0,0.7-0.2,1.2-0.6,1.6c-0.4,0.4-0.9,0.6-1.6,0.6s-1.2-0.2-1.6-0.6s-0.6-0.9-0.6-1.6v-3.3h1
		v3.2c0,0.4,0.1,0.7,0.3,0.9c0.2,0.2,0.5,0.3,0.9,0.3c0.4,0,0.6-0.1,0.8-0.3c0.2-0.2,0.3-0.5,0.3-0.9V277.6z"/>
	<path class="st38" d="M56.2,279.2c0,0.5-0.2,0.9-0.5,1.2s-0.8,0.5-1.3,0.5h-1.1v1.9h-1v-5.3h2.2c0.5,0,1,0.2,1.3,0.5
		C56.1,278.4,56.2,278.8,56.2,279.2z M55,279.8c0.1-0.1,0.2-0.3,0.2-0.5s-0.1-0.4-0.2-0.5c-0.1-0.1-0.3-0.2-0.6-0.2h-1.2v1.5h1.2
		C54.7,280,54.9,280,55,279.8z"/>
	<path class="st38" d="M60.8,282.9h-3.7v-5.3h3.5v0.9h-2.6v1.2h2.4v0.9h-2.4v1.3h2.7V282.9z"/>
	<path class="st38" d="M64.7,280.6l1.4,2.3H65l-1.3-2.1h-0.9v2.1h-1v-5.3H64c0.6,0,1,0.2,1.3,0.5s0.5,0.7,0.5,1.1
		c0,0.3-0.1,0.6-0.3,0.9C65.3,280.3,65,280.5,64.7,280.6z M62.8,279.9H64c0.2,0,0.4-0.1,0.6-0.2s0.2-0.3,0.2-0.5
		c0-0.2-0.1-0.3-0.2-0.5c-0.1-0.1-0.3-0.2-0.5-0.2h-1.2V279.9z"/>
	<path class="st38" d="M68,277.6v5.3h-1v-5.3H68z"/>
	<path class="st38" d="M74.4,280.2c0,0.8-0.2,1.4-0.7,2s-1.1,0.8-1.9,0.8c-0.8,0-1.4-0.3-1.9-0.8s-0.7-1.2-0.7-2
		c0-0.8,0.2-1.4,0.7-2c0.5-0.5,1.1-0.8,1.9-0.8c0.8,0,1.4,0.3,1.9,0.8C74.2,278.8,74.4,279.5,74.4,280.2z M73,281.6
		c0.3-0.3,0.4-0.8,0.4-1.3c0-0.5-0.1-1-0.4-1.3c-0.3-0.3-0.7-0.5-1.2-0.5c-0.5,0-0.9,0.2-1.2,0.5c-0.3,0.3-0.4,0.8-0.4,1.3
		c0,0.5,0.1,1,0.4,1.3c0.3,0.3,0.7,0.5,1.2,0.5C72.3,282.1,72.7,281.9,73,281.6z"/>
	<path class="st38" d="M78.4,280.6l1.4,2.3h-1.1l-1.3-2.1h-0.9v2.1h-1v-5.3h2.2c0.6,0,1,0.2,1.3,0.5s0.5,0.7,0.5,1.1
		c0,0.3-0.1,0.6-0.3,0.9C79,280.3,78.7,280.5,78.4,280.6z M76.5,279.9h1.2c0.2,0,0.4-0.1,0.6-0.2s0.2-0.3,0.2-0.5
		c0-0.2-0.1-0.3-0.2-0.5c-0.1-0.1-0.3-0.2-0.5-0.2h-1.2V279.9z"/>
	<path class="st38" d="M48.5,290.1l0.8,1.3h-1l-0.6-0.9c-0.3,0.1-0.6,0.1-0.8,0.1c-0.8,0-1.4-0.3-1.9-0.8s-0.7-1.2-0.7-2
		c0-0.8,0.2-1.4,0.7-2c0.5-0.5,1.1-0.8,1.9-0.8c0.8,0,1.4,0.3,1.9,0.8c0.5,0.5,0.7,1.2,0.7,2C49.6,288.8,49.2,289.6,48.5,290.1z
		 M47.2,289.7l-0.9-1.5h1.1l0.7,1.1c0.3-0.3,0.5-0.8,0.5-1.4c0-0.5-0.1-1-0.4-1.3c-0.3-0.3-0.7-0.5-1.2-0.5c-0.5,0-0.9,0.2-1.2,0.5
		c-0.3,0.3-0.4,0.8-0.4,1.3c0,0.5,0.1,1,0.4,1.3c0.3,0.3,0.7,0.5,1.2,0.5C47,289.7,47.1,289.7,47.2,289.7z"/>
	<path class="st38" d="M53.9,285.3h1v3.3c0,0.7-0.2,1.2-0.6,1.6c-0.4,0.4-0.9,0.6-1.6,0.6s-1.2-0.2-1.6-0.6s-0.6-0.9-0.6-1.6v-3.3h1
		v3.2c0,0.4,0.1,0.7,0.3,0.9c0.2,0.2,0.5,0.3,0.9,0.3c0.4,0,0.6-0.1,0.8-0.3c0.2-0.2,0.3-0.5,0.3-0.9V285.3z"/>
	<path class="st38" d="M59.6,290.5l-0.4-1.2H57l-0.4,1.2h-1l2-5.3h1.1l2,5.3H59.6z M57.3,288.4h1.5l-0.8-2.1L57.3,288.4z"/>
	<path class="st38" d="M65.1,289.6v0.9h-3.5v-5.3h1v4.3H65.1z"/>
	<path class="st38" d="M67,285.3v5.3h-1v-5.3H67z"/>
	<path class="st38" d="M72.2,285.3v0.9h-1.7v4.3h-1v-4.3h-1.7v-0.9H72.2z"/>
	<path class="st38" d="M76.2,285.3h1.1l-1.9,3.3v2h-1v-2l-1.9-3.3h1.1l1.3,2.4L76.2,285.3z"/>
</g>
<g>
	<path class="st38" d="M41.7,173.8v5.3h-1v-2.2h-2.4v2.2h-1v-5.3h1v2.2h2.4v-2.2H41.7z"/>
	<path class="st38" d="M44,173.8v5.3h-1v-5.3H44z"/>
	<path class="st38" d="M47.6,176.2H50v2.8h-0.9v-0.6c-0.1,0.2-0.3,0.4-0.6,0.5c-0.3,0.1-0.6,0.2-1,0.2c-0.7,0-1.3-0.3-1.7-0.8
		c-0.4-0.5-0.7-1.2-0.7-2c0-0.8,0.2-1.5,0.7-2c0.5-0.5,1.1-0.8,1.9-0.8c0.6,0,1.2,0.2,1.6,0.5c0.4,0.3,0.7,0.8,0.7,1.4h-1
		c0-0.3-0.2-0.5-0.4-0.7s-0.5-0.3-0.9-0.3c-0.5,0-0.9,0.2-1.2,0.5c-0.3,0.4-0.4,0.8-0.4,1.3c0,0.5,0.1,1,0.4,1.3
		c0.3,0.3,0.7,0.5,1.2,0.5c0.4,0,0.7-0.1,0.9-0.3c0.2-0.2,0.4-0.5,0.4-0.8h-1.5V176.2z"/>
	<path class="st38" d="M55.7,173.8v5.3h-1v-2.2h-2.4v2.2h-1v-5.3h1v2.2h2.4v-2.2H55.7z"/>
	<path class="st38" d="M29.5,186.8c-0.6,0-1.1-0.2-1.5-0.5c-0.4-0.3-0.6-0.8-0.6-1.4h1c0,0.4,0.1,0.6,0.4,0.8
		c0.2,0.2,0.5,0.3,0.8,0.3c0.3,0,0.5-0.1,0.7-0.2c0.2-0.1,0.3-0.3,0.3-0.5c0-0.2-0.1-0.3-0.2-0.4c-0.1-0.1-0.2-0.2-0.4-0.2
		c-0.2-0.1-0.4-0.1-0.7-0.2c-0.3-0.1-0.6-0.2-0.9-0.3c-0.6-0.3-0.9-0.7-0.9-1.3c0-0.5,0.2-0.9,0.6-1.2c0.4-0.3,0.8-0.4,1.4-0.4
		s1,0.1,1.4,0.4c0.4,0.3,0.5,0.7,0.5,1.2h-1c0-0.5-0.4-0.8-1-0.8c-0.3,0-0.5,0.1-0.7,0.2c-0.2,0.1-0.3,0.3-0.3,0.5
		c0,0.2,0.1,0.4,0.3,0.5s0.4,0.2,0.8,0.3c0.3,0.1,0.7,0.2,0.9,0.3c0.2,0.1,0.5,0.2,0.7,0.4c0.2,0.2,0.3,0.5,0.3,0.9
		c0,0.5-0.2,0.9-0.6,1.2C30.5,186.7,30.1,186.8,29.5,186.8z"/>
	<path class="st38" d="M36.3,181.4v0.9h-1.7v4.3h-1v-4.3h-1.7v-0.9H36.3z"/>
	<path class="st38" d="M39.9,184.4l1.4,2.3h-1.1l-1.3-2.1H38v2.1h-1v-5.3h2.2c0.6,0,1,0.2,1.3,0.5s0.5,0.7,0.5,1.1
		c0,0.3-0.1,0.6-0.3,0.9C40.5,184.1,40.3,184.3,39.9,184.4z M38,183.7h1.2c0.2,0,0.4-0.1,0.6-0.2s0.2-0.3,0.2-0.5
		c0-0.2-0.1-0.3-0.2-0.5c-0.1-0.1-0.3-0.2-0.5-0.2H38V183.7z"/>
	<path class="st38" d="M45.9,186.7h-3.7v-5.3h3.5v0.9h-2.6v1.2h2.4v0.9h-2.4v1.3h2.7V186.7z"/>
	<path class="st38" d="M51.3,181.4v5.3h-1l-2.3-3.7v3.7h-1v-5.3H48l2.3,3.6v-3.6H51.3z"/>
	<path class="st38" d="M54.8,183.9h2.5v2.8h-0.9v-0.6c-0.1,0.2-0.3,0.4-0.6,0.5c-0.3,0.1-0.6,0.2-1,0.2c-0.7,0-1.3-0.3-1.7-0.8
		c-0.4-0.5-0.7-1.2-0.7-2c0-0.8,0.2-1.5,0.7-2c0.5-0.5,1.1-0.8,1.9-0.8c0.6,0,1.2,0.2,1.6,0.5c0.4,0.3,0.7,0.8,0.7,1.4h-1
		c0-0.3-0.2-0.5-0.4-0.7s-0.5-0.3-0.9-0.3c-0.5,0-0.9,0.2-1.2,0.5c-0.3,0.4-0.4,0.8-0.4,1.3c0,0.5,0.1,1,0.4,1.3
		c0.3,0.3,0.7,0.5,1.2,0.5c0.4,0,0.7-0.1,0.9-0.3c0.2-0.2,0.4-0.5,0.4-0.8h-1.5V183.9z"/>
	<path class="st38" d="M62.2,181.4v0.9h-1.7v4.3h-1v-4.3h-1.7v-0.9H62.2z"/>
	<path class="st38" d="M67.4,181.4v5.3h-1v-2.2H64v2.2h-1v-5.3h1v2.2h2.4v-2.2H67.4z"/>
</g>
<g>
	<path class="st18" d="M195,26.9c0.2,0.2,0.6,0.2,0.8,0c0.2-0.2,0.2-0.6,0-0.8c-0.7-0.7-1.7-0.7-2.4,0c-0.2,0.2-0.2,0.6,0,0.8
		c0.2,0.2,0.6,0.2,0.8,0C194.5,26.7,194.8,26.7,195,26.9"/>
	<path class="st18" d="M199.9,26.9c0.2-0.2,0.6-0.2,0.8,0c0.2,0.2,0.6,0.2,0.8,0c0.2-0.2,0.2-0.6,0-0.8c-0.7-0.7-1.7-0.7-2.4,0
		c-0.2,0.2-0.2,0.6,0,0.8C199.3,27.1,199.7,27.1,199.9,26.9"/>
	<path class="st18" d="M200.7,29.9c0.2-0.2,0.2-0.6,0-0.8c-0.2-0.2-0.6-0.2-0.8,0c0,0,0,0,0,0c-1.3,1.3-3.5,1.3-4.8,0
		c-0.2-0.2-0.6-0.2-0.8,0c-0.2,0.2-0.2,0.6,0,0.8c0,0,0,0,0,0C196,31.7,198.9,31.7,200.7,29.9"/>
	<path class="st18" d="M202.6,42.5c0.3,0,0.6-0.3,0.6-0.6c0-0.3-0.3-0.6-0.6-0.6h-1.7c-0.3,0-0.6,0.3-0.6,0.6c0,0.3,0.3,0.6,0.6,0.6
		H202.6z"/>
	<path class="st18" d="M194.1,41.4h-1.7c-0.3,0-0.6,0.3-0.6,0.6c0,0.3,0.3,0.6,0.6,0.6h1.7c0.3,0,0.6-0.3,0.6-0.6
		C194.6,41.7,194.4,41.4,194.1,41.4"/>
	<path class="st18" d="M209.3,42.5c-0.3,0-0.6,0.3-0.6,0.6v0.6h-2.8V42c0,0,0-0.1,0-0.1l-0.3-2.2c0-0.3-0.3-0.5-0.6-0.5
		c-0.3,0-0.5,0.3-0.5,0.6l0.3,2.2v2.8h-5.1c-0.3,0-0.6,0.3-0.6,0.6c0,0.3,0.3,0.6,0.6,0.6h5.1v1.7c0,0.3,0.3,0.6,0.6,0.6
		s0.6-0.3,0.6-0.6v-2.8h2.8v2.8c0,0.3,0.3,0.6,0.6,0.6c0.3,0,0.6-0.3,0.6-0.6v-4.5C209.9,42.8,209.6,42.5,209.3,42.5"/>
	<path class="st18" d="M203.7,33.5h-2.3v-0.7c1.4-1,2.4-2.6,2.7-4.4h0.1c1.2,0,2.3-1,2.3-2.2c0-0.7-0.3-1.4-0.9-1.8
		c0.2-0.3,0.3-0.7,0.3-1c0-0.9-0.8-1.7-1.7-1.7h-9c-0.3,0-0.6,0.3-0.6,0.6c0,0.3,0.3,0.6,0.6,0.6h9c0.3,0,0.6,0.3,0.6,0.6
		c0,0.3-0.3,0.6-0.6,0.6h-13.6c-0.3,0-0.6-0.3-0.6-0.6c0-0.3,0.3-0.6,0.6-0.6h2.3c0.3,0,0.6-0.3,0.6-0.6c0-0.3-0.3-0.6-0.6-0.6h-1.7
		c0.1-0.9,0.3-1.7,0.8-2.5l0.4,1c0.1,0.3,0.4,0.4,0.7,0.3c0.3-0.1,0.4-0.4,0.3-0.7l-0.7-1.6c0.4-0.5,0.9-0.9,1.4-1.2l0.3,3.1
		c0,0.3,0.3,0.5,0.6,0.5c0.3,0,0.5-0.3,0.5-0.6l-0.4-4.2c1.5-0.4,3-0.4,4.4,0l-0.4,4.2c0,0.3,0.2,0.6,0.5,0.6h0c0,0,0,0,0.1,0
		c0.3,0,0.5-0.2,0.6-0.5l0.3-3.1c0.5,0.3,1,0.7,1.4,1.2l-0.7,1.6c-0.1,0.3,0,0.6,0.3,0.7c0.3,0.1,0.6,0,0.7-0.3l0.4-1
		c0.2,0.3,0.3,0.6,0.4,0.9c0.1,0.3,0.4,0.4,0.7,0.3c0.3-0.1,0.4-0.4,0.3-0.7c-0.2-0.7-0.6-1.3-1-1.8l0.2-0.6c0.1-0.3,0-0.6-0.3-0.7
		c-0.3-0.1-0.6,0-0.7,0.3l0,0c-0.5-0.5-1.1-0.9-1.8-1.3l0-0.3c0-0.3-0.1-0.5-0.4-0.6c-2-0.6-4-0.6-6,0c-0.3,0.1-0.4,0.3-0.4,0.6
		l0,0.3c-0.6,0.3-1.2,0.8-1.8,1.3l0,0c-0.1-0.3-0.4-0.4-0.7-0.3c-0.3,0.1-0.4,0.4-0.3,0.7l0.2,0.6c-0.8,1.1-1.3,2.5-1.4,3.8
		c-0.9,0.3-1.4,1.2-1.1,2.1c0.1,0.2,0.1,0.3,0.3,0.5c-1,0.7-1.2,2.1-0.5,3.2c0.4,0.6,1.1,0.9,1.8,0.9h0.1c0.3,1.8,1.3,3.3,2.7,4.4
		v0.7h-2.3c-2.3,0-4.5,1.3-5.5,3.4c-0.1,0.3,0,0.6,0.2,0.8c0.1,0,0.2,0.1,0.3,0.1c0.2,0,0.4-0.1,0.5-0.3c0.7-1.3,1.9-2.3,3.3-2.6
		c0,0.1,0,0.1,0,0.2l-0.9,6c-0.4-0.2-0.9-0.2-1.3-0.1v-0.1c0-1.2-1-2.3-2.3-2.3c-0.3,0-0.6,0.1-0.9,0.2c-0.2-0.1-0.5-0.2-0.8-0.2
		c0-1.2-1-2.3-2.3-2.3c-0.3,0-0.6,0.1-0.9,0.2c-0.4-0.2-0.9-0.3-1.3-0.1c-0.2-0.1-0.4-0.1-0.6-0.1c-0.9,0-1.7,0.8-1.7,1.7h-0.6
		c-0.3,0-0.6,0.3-0.6,0.6v4.5c0,0.3,0.3,0.6,0.6,0.6h4v3.4h-3.4v-1.1h1.7c0.3,0,0.6-0.3,0.6-0.6c0-0.3-0.3-0.6-0.6-0.6h-2.3
		c-0.3,0-0.6,0.3-0.6,0.6v2.3c0,0.3,0.3,0.6,0.6,0.6h13.6c0.3,0,0.6-0.3,0.6-0.6v-1.7h6.2v1.7c0,0.3,0.3,0.6,0.6,0.6
		c0.3,0,0.6-0.3,0.6-0.6v-4.4l3.2-8.6h2c0.3,0,0.5,0.2,0.6,0.5l0.4,2.5c0,0.3,0.3,0.5,0.6,0.5c0.3,0,0.5-0.3,0.5-0.6l-0.4-2.5
		c0-0.1,0-0.1,0-0.2c2.3,0.6,3.9,2.6,3.9,4.9v1.1c0,0.3,0.3,0.6,0.6,0.6c0.3,0,0.6-0.3,0.6-0.6v-1.1
		C209.9,36.3,207.1,33.5,203.7,33.5 M197.5,41.5l-1.4-3.7c0.9,0.4,1.9,0.4,2.8,0L197.5,41.5z M204.2,27.3V25c0.6,0,1.1,0.5,1.1,1.1
		C205.4,26.8,204.9,27.3,204.2,27.3 M189.6,26.1c0-0.6,0.5-1.1,1.1-1.1v2.3C190.1,27.3,189.6,26.8,189.6,26.1 M191.8,27.3V25h11.3
		v2.3c0,3.1-2.5,5.7-5.7,5.7C194.3,32.9,191.8,30.4,191.8,27.3 M197.5,34.1c1,0,1.9-0.2,2.8-0.6V34l-0.8,2c-1,1.1-2.8,1.2-4,0.2
		c-0.1-0.1-0.1-0.1-0.2-0.2l-0.8-2v-0.5C195.5,33.8,196.5,34.1,197.5,34.1 M186.2,44.8v-0.7c0.5,0.2,1,0.1,1.4-0.1
		c0.6,0.4,1.4,0.3,2-0.2v1H186.2z M181.6,41.9c0.5,0.2,1,0.1,1.4-0.1c0.2,0.1,0.4,0.2,0.6,0.2c0.1,0.2,0.3,0.4,0.5,0.6h-2.5V41.9z
		 M181.6,43.7h3.4v1.1h-3.4V43.7z M179.1,37.5c0.2,0.1,0.4,0.1,0.6,0c0.2-0.1,0.5-0.1,0.7,0.1c0.2,0.2,0.5,0.2,0.7,0
		c0.5-0.3,1.2-0.2,1.6,0.3c0.3,0.4,0.3,0.9,0,1.3c-0.1,0.2-0.1,0.5,0,0.7c0.1,0.1,0.3,0.2,0.4,0.2c0.2,0,0.3-0.1,0.4-0.2
		c0.2-0.2,0.5-0.3,0.8-0.1c0,0,0,0,0,0c0.2,0.2,0.5,0.2,0.7,0c0.5-0.3,1.2-0.2,1.6,0.3c0.2,0.3,0.3,0.7,0.1,1.1
		c-0.1,0.3,0,0.6,0.3,0.7c0,0,0,0,0,0c0.1,0,0.1,0.1,0.2,0.2c0.2,0.2,0.6,0.3,0.8,0.1c0,0,0,0,0.1-0.1c0.1-0.1,0.3-0.2,0.4-0.2
		c0.3,0,0.6,0.3,0.6,0.6c0,0.3-0.3,0.6-0.6,0.6c-0.2,0-0.3-0.1-0.4-0.2c-0.2-0.2-0.6-0.3-0.8-0.1c0,0,0,0-0.1,0.1
		c-0.1,0.1-0.3,0.2-0.4,0.2c-0.3,0-0.6-0.3-0.6-0.6c0-0.3-0.3-0.6-0.6-0.6c-0.5,0-0.9-0.3-1.1-0.8c-0.1-0.2-0.4-0.4-0.6-0.4
		c-0.2,0-0.3-0.1-0.4-0.2c-0.2-0.2-0.6-0.2-0.8,0c0,0,0,0,0,0c-0.2,0.2-0.6,0.3-0.8,0.1c-0.1-0.1-0.2-0.3-0.2-0.4l0-0.1
		c0-0.3-0.1-0.5-0.4-0.6c-0.3-0.1-0.6-0.4-0.7-0.7c-0.1-0.2-0.4-0.4-0.6-0.4c-0.1,0-0.2,0-0.3-0.1c-0.2-0.1-0.4-0.1-0.6,0
		c-0.3,0.2-0.6,0.1-0.8-0.2c-0.2-0.3-0.1-0.6,0.2-0.8C178.7,37.4,178.9,37.4,179.1,37.5L179.1,37.5z M177.1,39.1h0.4
		c0.3,0.4,0.8,0.6,1.3,0.6c0.2,0,0.4,0,0.6-0.1c0.1,0,0.2,0.1,0.3,0.1c0.1,0.2,0.3,0.4,0.5,0.6h-3V39.1z M177.1,41.4h3.4v1.1h-3.4
		V41.4z M181.6,45.9h3.4v1.1h-3.4V45.9z M189.6,47.1h-3.4v-1.1h3.4V47.1z M190.7,44.8v-1.7c0-0.3-0.3-0.6-0.6-0.6c0-0.1,0-0.3,0-0.4
		c0,0,0-0.1,0-0.1l1-6.9c0-0.3,0.3-0.5,0.6-0.5h2l3.2,8.6v1.6H190.7z"/>
	<path class="st18" d="M178,35.1L178,35.1c0.4,0.4,1,0.5,1.5,0.3l3.9-1.7c0.7-0.3,1-1.1,0.7-1.8c-0.1-0.2-0.2-0.3-0.3-0.4l-0.8-0.8
		c0.3-0.6,0.2-1.4-0.3-1.9c-0.1-0.1-0.2-0.3-0.2-0.4c0.2,0.1,0.4,0.1,0.6,0.1c0.4,0,0.9-0.2,1.2-0.5l2.4-2.4c0.7-0.7,0.7-1.7,0-2.4
		c-0.7-0.7-1.7-0.7-2.4,0l-2.4,2.4c-0.5,0.5-0.6,1.3-0.3,2c-0.4,0.7-0.2,1.5,0.3,2l-0.3-0.3c-0.5-0.5-1.4-0.5-2,0
		c-0.1,0.1-0.2,0.3-0.3,0.4l-1.7,3.9C177.5,34.1,177.6,34.7,178,35.1 M182.8,26.3l2.4-2.4c0.2-0.2,0.6-0.2,0.8,0
		c0.2,0.2,0.2,0.6,0,0.8l-2.4,2.4c-0.2,0.2-0.6,0.2-0.8,0C182.6,26.9,182.6,26.5,182.8,26.3C182.8,26.3,182.8,26.3,182.8,26.3
		 M178.7,34l1.7-3.9c0-0.1,0.1-0.1,0.2-0.2c0,0,0,0,0.1,0c0.1,0,0.1,0,0.2,0.1l0.7,0.7l-0.4,0.4c-0.2,0.2-0.2,0.6,0,0.8
		c0.2,0.2,0.6,0.2,0.8,0c0,0,0,0,0,0l0.4-0.4l0.7,0.7c0.1,0.1,0.1,0.3,0,0.4c0,0-0.1,0-0.1,0.1l-3.9,1.7c-0.1,0-0.2,0-0.3-0.1
		C178.7,34.2,178.7,34.1,178.7,34"/>
</g>
<g>
	<path class="st18" d="M308.2,76.4h-3.9l1-1.6c0.2-0.3,0.2-0.6,0-0.9l-0.7-1.2c-0.2-0.3-0.4-0.6-0.7-0.9l-0.4-0.4l0.4-0.4
		c0.3-0.3,0.5-0.6,0.7-0.9l0.7-1.2c0.2-0.3,0.2-0.6,0-0.9l-0.7-1.2c-0.2-0.3-0.4-0.6-0.7-0.9l-0.4-0.4l0.4-0.4
		c0.3-0.3,0.5-0.6,0.7-0.9l0.7-1.2c0.2-0.3,0.2-0.6,0-0.9l-0.7-1.2c-0.8-1.3-2.2-2.1-3.7-2.1h-21.2c-1.5,0-2.9,0.8-3.7,2.1l-0.7,1.2
		c-0.2,0.3-0.2,0.6,0,0.9l0.7,1.2c0.2,0.3,0.4,0.6,0.7,0.9l0.4,0.4l-0.4,0.4c-0.3,0.3-0.5,0.6-0.7,0.9l-0.7,1.2
		c-0.2,0.3-0.2,0.6,0,0.9l0.7,1.2c0.2,0.3,0.4,0.6,0.7,0.9l0.4,0.4l-0.4,0.4c-0.3,0.3-0.5,0.6-0.7,0.9l-0.7,1.2
		c-0.2,0.3-0.2,0.6,0,0.9l1,1.6h-3.9c-0.4,0-0.7,0.3-0.8,0.7v6.7h37.6V77C308.8,76.6,308.5,76.4,308.2,76.4z M276.7,62.8l0.5-0.8
		c0.5-0.8,1.4-1.3,2.4-1.3h21.2c1,0,1.9,0.5,2.4,1.3l0.5,0.8l-0.5,0.8c-0.5,0.8-1.4,1.3-2.4,1.3h-21.2c-1,0-1.9-0.5-2.4-1.3
		L276.7,62.8z M276.7,68.5l0.5-0.8c0.5-0.8,1.4-1.3,2.4-1.3h21.2c1,0,1.9,0.5,2.4,1.3l0.5,0.8l-0.5,0.8c-0.5,0.8-1.4,1.3-2.4,1.3
		h-21.2h0c-0.7,0-1.4-0.3-1.9-0.8c-0.2-0.2-0.3-0.3-0.5-0.6L276.7,68.5z M277.1,73.5c0.5-0.8,1.4-1.3,2.4-1.3h21.2
		c1,0,1.9,0.5,2.4,1.3l0.5,0.8l-0.5,0.8c-0.5,0.8-1.4,1.3-2.4,1.3h-21.2c-1,0-1.9-0.5-2.4-1.3l-0.5-0.8L277.1,73.5z M307.4,82.2
		h-34.4V78h34.4V82.2z"/>
</g>
<g>
	<path class="st18" d="M347.5,145.8c-1,0-1.8,0.8-1.8,1.8s0.8,1.8,1.8,1.8c1,0,1.8-0.8,1.8-1.8S348.5,145.8,347.5,145.8z
		 M347.5,148.4c-0.4,0-0.8-0.3-0.8-0.8s0.3-0.8,0.8-0.8s0.8,0.3,0.8,0.8S347.9,148.4,347.5,148.4z"/>
	<path class="st18" d="M340.8,165.3h-3.3c-0.2-1.6-1.3-3-2.8-3.6v-15.8c0.2-0.1,0.3-0.3,0.4-0.4h9.2c-0.4,0.6-0.6,1.3-0.6,2.1
		c0,0.3,0,0.6,0.1,0.9l-1.9,2.3c-0.6,0.7-0.6,1.7,0,2.4l2.4,2.8c0.5,0.6,1.4,0.6,1.9,0.2c0.6-0.5,0.7-1.4,0.2-2l-1.9-2.2l0.9-1.1
		c0.6,0.4,1.3,0.6,2.1,0.6c0.8,0,1.5-0.2,2.1-0.6l0.9,1.1l-1.9,2.2c-0.5,0.6-0.4,1.5,0.2,2c0.6,0.5,1.5,0.4,1.9-0.2l2.4-2.8
		c0.6-0.7,0.6-1.7,0-2.4l-1.9-2.3c0.1-0.3,0.1-0.6,0.1-0.9c0-1.2-0.5-2.2-1.4-2.9V143c0-1.4-1.1-2.5-2.5-2.5c-1.1,0-2.1,0.8-2.4,1.8
		h-10c-0.5-0.6-1.2-1-2-1c-1.4,0-2.5,1.1-2.5,2.5c0,0.8,0.4,1.6,1,2v7.1c0,0.3,0.2,0.5,0.5,0.5s0.5-0.2,0.5-0.5v-6.6
		c0.3,0.1,0.7,0.1,1,0v15c-0.3,0-0.7,0-1,0v-6.2c0-0.3-0.2-0.5-0.5-0.5c-0.3,0-0.5,0.2-0.5,0.5v6.4c-1.5,0.6-2.6,1.9-2.8,3.6
		c-3,0.2-5.4,2.8-5.4,5.9c0,3.3,2.6,5.9,5.9,5.9h5.2c0.3,0,0.5-0.2,0.5-0.5c0-0.3-0.2-0.5-0.5-0.5h-5.2c-2.7,0-4.8-2.2-4.8-4.8
		c0-2.7,2.2-4.8,4.8-4.8H354c2.7,0,4.8,2.2,4.8,4.8c0,2.7-2.2,4.8-4.8,4.8h-17.4c-0.3,0-0.5,0.2-0.5,0.5s0.2,0.5,0.5,0.5H354
		c3.3,0,5.9-2.6,5.9-5.9c0-3.2-2.5-5.8-5.7-5.9l0,0 M343.6,152.6l1.9,2.3c0.1,0.1,0.1,0.3-0.1,0.5c-0.1,0.1-0.3,0.1-0.4,0l-2.4-2.8
		c-0.2-0.3-0.2-0.7,0-1l1.6-1.8c0.1,0.2,0.2,0.4,0.4,0.5l-1,1.2C343.3,151.7,343.3,152.2,343.6,152.6L343.6,152.6z M352.4,151.4
		c0.2,0.3,0.2,0.7,0,1l-2.4,2.8c-0.1,0.1-0.3,0.1-0.4,0c-0.1-0.1-0.1-0.1-0.1-0.2c0-0.1,0-0.2,0.1-0.2l1.9-2.3
		c0.3-0.4,0.3-0.9,0-1.2l-1-1.2c0.1-0.2,0.3-0.3,0.4-0.5L352.4,151.4z M350.3,147.6c0,1.5-1.2,2.8-2.8,2.8c-1.5,0-2.8-1.2-2.8-2.8
		c0-1.5,1.2-2.8,2.8-2.8C349,144.9,350.3,146.1,350.3,147.6z M347.5,141.6c0.8,0,1.4,0.6,1.4,1.4v1c-0.9-0.4-1.9-0.4-2.8,0v-1
		C346.1,142.2,346.7,141.6,347.5,141.6z M345,143.4v1h-9.4c0.1-0.3,0.1-0.7,0-1H345z M331.7,143.9c0-0.8,0.7-1.5,1.5-1.5
		c0.8,0,1.5,0.7,1.5,1.5s-0.7,1.5-1.5,1.5C332.3,145.4,331.7,144.8,331.7,143.9z M353.1,165.3h-11.2 M333.2,162.5
		c1.6,0,3,1.2,3.3,2.8h-6.6C330.1,163.7,331.5,162.5,333.2,162.5z"/>
	<path class="st18" d="M347.3,167.1h-17.8c-2.2,0-4,1.8-4,4c0,2.2,1.8,4,4,4h24.2c2.2,0,4-1.8,4-4c0-2.2-1.8-4-4-4h-4.3
		c-0.3,0-0.5,0.2-0.5,0.5c0,0.3,0.2,0.5,0.5,0.5h4.3c1.6,0,3,1.3,3,3s-1.3,3-3,3h-24.2c-1.6,0-3-1.3-3-3c0-1.6,1.3-3,3-3h17.8
		c0.3,0,0.5-0.2,0.5-0.5C347.8,167.4,347.6,167.1,347.3,167.1L347.3,167.1z"/>
	<path class="st18" d="M328,171.2c0,1.2,1,2.2,2.2,2.2c1.2,0,2.2-1,2.2-2.2c0-1.2-1-2.2-2.2-2.2C329,169,328,169.9,328,171.2z
		 M331.3,171.2c0,0.6-0.5,1.1-1.1,1.1c-0.6,0-1.1-0.5-1.1-1.1c0-0.6,0.5-1.1,1.1-1.1C330.8,170,331.3,170.5,331.3,171.2z"/>
	<path class="st18" d="M355.3,171.2c0-1.2-1-2.2-2.2-2.2c-1.2,0-2.2,1-2.2,2.2c0,1.2,1,2.2,2.2,2.2
		C354.3,173.4,355.3,172.4,355.3,171.2z M352,171.2c0-0.6,0.5-1.1,1.1-1.1c0.6,0,1.1,0.5,1.1,1.1c0,0.6-0.5,1.1-1.1,1.1
		C352.5,172.3,352,171.8,352,171.2z"/>
	<path class="st18" d="M333.7,171.1c0,1.2,1,2.2,2.2,2.2c1.2,0,2.2-1,2.2-2.2c0-1.2-1-2.2-2.2-2.2
		C334.7,168.9,333.7,169.8,333.7,171.1z M337,171.1c0,0.6-0.5,1.1-1.1,1.1c-0.6,0-1.1-0.5-1.1-1.1c0-0.6,0.5-1.1,1.1-1.1
		C336.5,169.9,337,170.4,337,171.1z"/>
	<path class="st18" d="M339.4,171.1c0,1.2,1,2.2,2.2,2.2c1.2,0,2.2-1,2.2-2.2c0-1.2-1-2.2-2.2-2.2S339.4,169.8,339.4,171.1z
		 M342.8,171.1c0,0.6-0.5,1.1-1.1,1.1s-1.1-0.5-1.1-1.1c0-0.6,0.5-1.1,1.1-1.1C342.3,169.9,342.8,170.4,342.8,171.1z"/>
	<path class="st18" d="M345.2,171.1c0,1.2,1,2.2,2.2,2.2c1.2,0,2.2-1,2.2-2.2c0-1.2-1-2.2-2.2-2.2
		C346.1,168.9,345.2,169.8,345.2,171.1z M348.5,171.1c0,0.6-0.5,1.1-1.1,1.1c-0.6,0-1.1-0.5-1.1-1.1c0-0.6,0.5-1.1,1.1-1.1
		C348,169.9,348.5,170.4,348.5,171.1z"/>
</g>
<g>
	<defs>
		<rect id="SVGID_65_" x="343.2" y="156.9" width="10.6" height="8.8"/>
	</defs>
	<clipPath id="SVGID_66_">
		<use xlink:href="#SVGID_65_"  style="overflow:visible;"/>
	</clipPath>
	<g class="st39">
		<g>
			<g>
				<path class="st18" d="M351.6,167.6c0.5,0,0.9-0.4,0.9-0.8v-8.2v-0.2v-0.1c0-0.4-0.4-0.8-0.9-0.8h-6.8c-0.5,0-0.9,0.4-0.9,0.8
					v0.1v0.2v8.2c0,0.4,0.4,0.8,0.9,0.8H351.6z M352.1,159.2c0,0.3-0.3,0.5-0.6,0.5h-6.8c-0.3,0-0.6-0.2-0.6-0.5v0
					c0.2,0.1,0.4,0.2,0.6,0.2h6.8C351.8,159.4,352,159.3,352.1,159.2L352.1,159.2z M344.2,159.9c0.2,0.1,0.4,0.2,0.6,0.2h6.8
					c0.2,0,0.4-0.1,0.6-0.2v6.3c0,0.3-0.3,0.5-0.6,0.5h-6.8c-0.3,0-0.6-0.2-0.6-0.5V159.9z M344.2,158.3c0-0.3,0.3-0.5,0.6-0.5h6.8
					c0.3,0,0.6,0.2,0.6,0.5v0.1v0.2c0,0.3-0.3,0.5-0.6,0.5h-6.8c-0.3,0-0.6-0.2-0.6-0.5v-0.2V158.3z M344.2,166.8L344.2,166.8
					c0.2,0.1,0.4,0.2,0.6,0.2h6.8c0.2,0,0.4-0.1,0.6-0.2v0c0,0.3-0.3,0.5-0.6,0.5h-6.8C344.5,167.3,344.2,167,344.2,166.8"/>
				<path class="st18" d="M351.6,167.7h-6.8c-0.6,0-1.2-0.4-1.2-1v-8.5c0-0.5,0.5-1,1.2-1h6.8c0.6,0,1.2,0.4,1.2,1v8.5
					C352.7,167.3,352.2,167.7,351.6,167.7z M352.3,166.4c0,0,0,0.1-0.1,0.1L352.3,166.4L352.3,166.4z M344.1,166.4L344.1,166.4
					C344.1,166.5,344.1,166.4,344.1,166.4L344.1,166.4z M344.4,160.1v6c0,0.2,0.2,0.3,0.4,0.3h6.8c0.2,0,0.4-0.1,0.4-0.3v-6
					c-0.1,0-0.2,0-0.4,0h-6.8C344.7,160.2,344.5,160.2,344.4,160.1z M352.3,159.5c0,0,0,0.1-0.1,0.1L352.3,159.5L352.3,159.5z
					 M344.1,159.5L344.1,159.5C344.1,159.5,344.1,159.5,344.1,159.5L344.1,159.5z M344.1,158.9L344.1,158.9
					C344.1,158.9,344.1,158.9,344.1,158.9L344.1,158.9z M352.3,158.8c0,0,0,0.1-0.1,0.1L352.3,158.8L352.3,158.8z M344.8,158
					c-0.2,0-0.4,0.1-0.4,0.3v0.3c0,0.2,0.2,0.3,0.4,0.3h6.8c0.2,0,0.4-0.1,0.4-0.3v-0.3c0-0.2-0.2-0.3-0.4-0.3H344.8z"/>
			</g>
			<g>
				<path class="st18" d="M351.6,167.6h-6.8c-0.6,0-1-0.4-1-0.8v-8.5c0-0.5,0.4-0.8,1-0.8h6.8c0.6,0,1,0.4,1,0.8v8.5
					C352.6,167.2,352.1,167.6,351.6,167.6z M344.8,157.5c-0.5,0-0.9,0.3-0.9,0.7v8.5c0,0.4,0.4,0.7,0.9,0.7h6.8
					c0.5,0,0.9-0.3,0.9-0.7v-8.5c0-0.4-0.4-0.7-0.9-0.7H344.8z M351.6,167.3h-6.8c-0.3,0-0.6-0.2-0.6-0.5v-0.1l0.1,0.1
					c0.2,0.1,0.3,0.2,0.5,0.2h6.8c0.2,0,0.4-0.1,0.5-0.2l0.1-0.1v0.1C352.2,167.1,351.9,167.3,351.6,167.3z M344.3,166.9
					c0.1,0.2,0.3,0.3,0.5,0.3h6.8c0.2,0,0.4-0.1,0.5-0.3c-0.2,0.1-0.3,0.1-0.5,0.1h-6.8C344.6,167,344.4,166.9,344.3,166.9z
					 M351.6,166.7h-6.8c-0.3,0-0.6-0.2-0.6-0.5v-6.4l0.1,0.1c0.2,0.1,0.3,0.2,0.5,0.2h6.8c0.2,0,0.4-0.1,0.5-0.2l0.1-0.1v6.4
					C352.2,166.4,351.9,166.7,351.6,166.7z M344.3,159.9v6.2c0,0.2,0.2,0.4,0.5,0.4h6.8c0.3,0,0.5-0.2,0.5-0.4v-6.2
					c-0.2,0.1-0.3,0.1-0.5,0.1h-6.8C344.6,160.1,344.4,160,344.3,159.9z M351.6,159.7h-6.8c-0.3,0-0.6-0.2-0.6-0.5v-0.1l0.1,0.1
					c0.2,0.1,0.3,0.2,0.5,0.2h6.8c0.2,0,0.4-0.1,0.5-0.2l0.1-0.1v0.1C352.2,159.5,351.9,159.7,351.6,159.7z M344.3,159.3
					c0.1,0.2,0.3,0.3,0.5,0.3h6.8c0.2,0,0.4-0.1,0.5-0.3c-0.2,0.1-0.3,0.1-0.5,0.1h-6.8C344.6,159.4,344.4,159.4,344.3,159.3z
					 M351.6,159.1h-6.8c-0.3,0-0.6-0.2-0.6-0.5v-0.3c0-0.3,0.3-0.5,0.6-0.5h6.8c0.3,0,0.6,0.2,0.6,0.5v0.3
					C352.2,158.9,351.9,159.1,351.6,159.1z M344.8,157.9c-0.3,0-0.5,0.2-0.5,0.4v0.3c0,0.2,0.2,0.4,0.5,0.4h6.8
					c0.3,0,0.5-0.2,0.5-0.4v-0.3c0-0.2-0.2-0.4-0.5-0.4H344.8z"/>
				<path class="st18" d="M351.6,167.8h-6.8c-0.7,0-1.2-0.5-1.2-1v-8.5c0-0.6,0.5-1,1.2-1h6.8c0.7,0,1.2,0.5,1.2,1v8.5
					C352.8,167.3,352.2,167.8,351.6,167.8z M344.5,160.2v5.9c0,0.1,0.1,0.2,0.3,0.2h6.8c0.2,0,0.3-0.1,0.3-0.2v-5.9
					c-0.1,0-0.2,0-0.3,0h-6.8C344.7,160.2,344.6,160.2,344.5,160.2z M344.8,158c-0.2,0-0.3,0.1-0.3,0.2v0.3c0,0.1,0.1,0.2,0.3,0.2
					h6.8c0.2,0,0.3-0.1,0.3-0.2v-0.3c0-0.1-0.1-0.2-0.3-0.2H344.8z"/>
			</g>
		</g>
		<g>
			<path class="st18" d="M348.2,164.9c0.6,0,1.1-0.2,1.5-0.6c0.8-0.9,0.8-2.3,0-3.1c-0.4-0.4-0.9-0.6-1.5-0.6s-1.1,0.2-1.5,0.6
				c-0.8,0.9-0.8,2.3,0,3.1C347.1,164.7,347.7,164.9,348.2,164.9 M346.9,161.4c0.3-0.4,0.8-0.6,1.3-0.6c0.5,0,1,0.2,1.3,0.6
				c0.7,0.7,0.7,1.9,0,2.7c-0.3,0.4-0.8,0.6-1.3,0.6c-0.5,0-1-0.2-1.3-0.6C346.2,163.3,346.2,162.1,346.9,161.4"/>
			<path class="st18" d="M348.2,165c-0.6,0-1.1-0.2-1.5-0.7c-0.9-0.9-0.9-2.3,0-3.2c0.4-0.4,1-0.7,1.5-0.7c0.6,0,1.1,0.2,1.5,0.7
				c0.4,0.4,0.6,1,0.6,1.6s-0.2,1.2-0.6,1.6C349.4,164.8,348.8,165,348.2,165z M348.2,160.6c-0.6,0-1.1,0.2-1.5,0.6
				c-0.8,0.8-0.8,2.2,0,3c0.4,0.4,0.9,0.6,1.5,0.6c0.6,0,1.1-0.2,1.5-0.6c0.4-0.4,0.6-0.9,0.6-1.5c0-0.6-0.2-1.1-0.6-1.5
				C349.3,160.8,348.8,160.6,348.2,160.6z M348.2,164.7c-0.5,0-1-0.2-1.3-0.6c-0.7-0.8-0.7-2,0-2.7c0.4-0.4,0.8-0.6,1.3-0.6
				c0.5,0,1,0.2,1.3,0.6c0.4,0.4,0.6,0.9,0.6,1.4c0,0.5-0.2,1-0.6,1.4C349.2,164.5,348.7,164.7,348.2,164.7z M348.2,160.9
				c-0.5,0-0.9,0.2-1.3,0.5c-0.7,0.7-0.7,1.9,0,2.6c0.3,0.3,0.8,0.5,1.3,0.5c0.5,0,0.9-0.2,1.3-0.5c0.3-0.3,0.5-0.8,0.5-1.3
				c0-0.5-0.2-1-0.5-1.3C349.2,161.1,348.7,160.9,348.2,160.9z"/>
		</g>
		<g>
			<path class="st18" d="M347.5,163.8c0.1,0,0.2,0,0.3-0.1l0.4-0.4c0,0,0-0.1,0-0.2l-0.1-0.1l0.1-0.1c0.1,0.1,0.2,0.1,0.3,0.1
				c0.2,0,0.3-0.1,0.4-0.2c0.2-0.2,0.2-0.9,0.2-1c0-0.1-0.1-0.1-0.1-0.1c0,0,0,0,0,0c-0.3,0-0.7,0-0.9,0.2c-0.2,0.2-0.2,0.6-0.1,0.8
				l-0.1,0.1l-0.1-0.1c0,0-0.1,0-0.2,0l-0.4,0.4c-0.1,0.1-0.1,0.4,0,0.5C347.3,163.8,347.4,163.8,347.5,163.8 M348.3,162.1
				c0.1-0.1,0.3-0.1,0.7-0.1c0,0.3,0,0.6-0.1,0.7c-0.1,0.1-0.4,0.1-0.5,0l0,0C348.2,162.5,348.2,162.3,348.3,162.1 M347.4,163.5
				c0,0,0-0.1,0-0.2l0.3-0.4l0.1,0.1l0,0c0,0,0,0,0,0l0.1,0.1l-0.3,0.4C347.6,163.6,347.5,163.6,347.4,163.5"/>
			<path class="st18" d="M347.5,163.9c-0.1,0-0.2,0-0.3-0.1c-0.2-0.2-0.2-0.4,0-0.6l0.4-0.4c0,0,0.1,0,0.1,0l0,0c0,0,0.1,0,0.1,0
				l0.1,0.1l0,0c-0.2-0.3-0.1-0.6,0.1-0.8c0.2-0.2,0.7-0.2,0.9-0.2c0,0,0,0,0,0c0.1,0,0.2,0.1,0.2,0.2c0,0.1,0,0.8-0.2,1
				c-0.1,0.1-0.3,0.2-0.5,0.2c-0.1,0-0.2,0-0.3-0.1l0,0l0.1,0.1c0.1,0.1,0.1,0.2,0,0.2l-0.4,0.4
				C347.7,163.8,347.6,163.9,347.5,163.9z M347.8,162.7C347.8,162.7,347.7,162.8,347.8,162.7l-0.5,0.5c-0.1,0.1-0.1,0.3,0,0.5
				c0.1,0.1,0.1,0.1,0.2,0.1c0.1,0,0.2,0,0.2-0.1l0.4-0.4c0,0,0,0,0-0.1c0,0,0,0,0-0.1l-0.1-0.1l0.1-0.2l0,0
				c0.1,0.1,0.2,0.1,0.3,0.1c0.2,0,0.3-0.1,0.4-0.2c0.2-0.2,0.2-0.9,0.2-1c0,0,0-0.1-0.1-0.1l0,0c0,0,0,0,0,0
				c-0.4,0-0.8,0.1-0.9,0.2c-0.2,0.2-0.2,0.5-0.1,0.7l0,0l-0.1,0.2L347.8,162.7C347.8,162.8,347.8,162.7,347.8,162.7z M347.5,163.6
				c0,0-0.1,0-0.1,0l0,0c-0.1-0.1-0.1-0.2,0-0.2l0.4-0.4l0.2,0.2l-0.4,0.4C347.6,163.6,347.6,163.6,347.5,163.6z M347.5,163.5
				c0,0,0.1,0,0.1,0l0.3-0.3l0,0h0l0,0l-0.1-0.1l-0.3,0.3C347.4,163.4,347.4,163.5,347.5,163.5z M348.6,162.8c-0.1,0-0.2,0-0.3-0.1
				c-0.2-0.2-0.2-0.4,0-0.6l0,0c0.1-0.1,0.4-0.1,0.7-0.2l0,0l0,0c0,0.1,0,0.6-0.1,0.7C348.8,162.8,348.7,162.8,348.6,162.8z
				 M348.3,162.1c-0.1,0.1-0.1,0.3,0,0.5c0.1,0.1,0.3,0.1,0.5,0c0.1-0.1,0.1-0.3,0.1-0.6C348.6,162,348.4,162.1,348.3,162.1z"/>
		</g>
		<g>
			<path class="st18" d="M345.7,165.7h4.9c0.1,0,0.2-0.1,0.2-0.2c0-0.1-0.1-0.2-0.2-0.2h-4.9c-0.1,0-0.2,0.1-0.2,0.2
				C345.5,165.6,345.6,165.7,345.7,165.7"/>
			<path class="st18" d="M350.6,165.7h-4.9c-0.1,0-0.2-0.1-0.2-0.2c0-0.1,0.1-0.2,0.2-0.2h4.9c0.1,0,0.2,0.1,0.2,0.2
				C350.9,165.6,350.7,165.7,350.6,165.7z M345.7,165.4c-0.1,0-0.1,0-0.1,0.1c0,0.1,0.1,0.1,0.1,0.1h4.9c0.1,0,0.1,0,0.1-0.1
				c0-0.1-0.1-0.1-0.1-0.1H345.7z"/>
		</g>
	</g>
</g>
<g>
	<g>
		<path class="st18" d="M320.1,274.1c-1.1,0-2.3-0.2-3.3-0.7l-5.1-2.2c-1.8-0.8-3.8-1.3-5.7-1.5l-1.7-0.2c-0.3,0-0.5-0.3-0.5-0.5
			v-5.2c0-0.1,0-0.2,0.1-0.3c0.1-0.2,3.1-4.1,7.6-3c2.6,0.6,4.6,1.6,5.9,2.4c0.9,0.6,2,0.9,3.1,0.9h5.1c0.9,0,1.6,0.5,2.1,1.2l4.4-5
			c0.8-1.1,2.2-1.8,3.7-1.8h0.3c0.2,0,0.3,0.1,0.4,0.2c0.1,0.2,0.1,0.3,0,0.5l-3.9,8.9c-0.9,2-2.6,3.4-4.7,4l-0.7,0.2l-4,1.6
			C322.2,273.9,321.1,274.1,320.1,274.1 M304.9,268.6l1.2,0.1c2.1,0.2,4.1,0.7,6.1,1.6l5.1,2.2c1.8,0.8,3.8,0.8,5.6,0.1l4.1-1.6
			c0,0,0,0,0.1,0l0.7-0.2c1.8-0.4,3.2-1.7,4-3.3l3.6-8.2c-0.9,0.1-1.8,0.6-2.3,1.4l-4.8,5.6c0,0,0,0,0,0.1c0,1.3-1.1,2.4-2.4,2.4
			h-7.1c-0.9,0-1.8,0.1-2.7,0.4l-0.2-0.5l-0.2-0.5l0,0c1-0.3,2-0.5,3-0.5h7.1c0.7,0,1.4-0.6,1.4-1.4c0-0.7-0.6-1.4-1.4-1.4h-5.1
			c-1.3,0-2.6-0.4-3.7-1c-1.2-0.7-3.1-1.8-5.6-2.3c-3.4-0.8-5.9,1.9-6.4,2.5V268.6z"/>
		<path class="st18" d="M324.8,258c-0.8,0-1.7-0.3-2.8-0.8c-0.1-0.1-0.2-0.2-0.3-0.3c0-0.1-1-2.9,0.5-4.9c1.1-1.5,3.2-2.1,6.2-2
			c0.3,0,0.5,0.2,0.5,0.5c0,0.2,0.2,5.2-2.3,6.9C326.2,257.8,325.5,258,324.8,258 M322.8,256.4c1.4,0.7,2.5,0.7,3.3,0.2
			c1.5-1,1.8-3.9,1.9-5.5c-2.3-0.1-3.9,0.5-4.8,1.6C322.2,254,322.6,255.8,322.8,256.4"/>
		<path class="st18" d="M316.7,251c-0.9,0-2-0.2-3-0.9c-1.6-1.2-2.4-3.4-2.2-6.7c0-0.3,0.2-0.5,0.5-0.5c0.2,0,5.7-0.3,7.5,2.5
			c0.9,1.3,0.8,3-0.2,5c-0.1,0.1-0.2,0.2-0.3,0.3C318.9,250.6,317.9,251,316.7,251 M318.8,250.1L318.8,250.1L318.8,250.1z
			 M312.5,243.9c0,2.6,0.6,4.4,1.8,5.3c1.5,1.1,3.5,0.6,4.1,0.4c0.7-1.6,0.8-2.8,0.2-3.7C317.5,244.2,314.2,243.9,312.5,243.9"/>
		<path class="st18" d="M320.9,264.7C320.8,264.7,320.8,264.7,320.9,264.7c-0.3,0-0.5-0.3-0.5-0.6c0-0.6,0.1-1.2,0.2-1.8
			c0.2-3.8,0.1-12.6-5.5-15c-0.3-0.1-0.4-0.4-0.3-0.7c0.1-0.3,0.4-0.4,0.7-0.3c3.3,1.4,5.3,5,6,10.3c0.1,0.5,0.1,0.9,0.1,1.4
			c1.5-3.7,3.7-5,3.8-5.1c0.3-0.1,0.6-0.1,0.7,0.2c0.1,0.3,0.1,0.6-0.2,0.7c-0.1,0-3.5,2.1-4.4,8.5c-0.1,1.1-0.2,1.8-0.2,1.8
			C321.3,264.5,321.1,264.7,320.9,264.7"/>
	</g>
</g>
<g>
	<g>
		<path class="st18" d="M247.5,326.9c-4.9,0-8.9-4-8.9-8.9c0-4.9,4-8.9,8.9-8.9c4.9,0,8.9,4,8.9,8.9
			C256.4,322.9,252.4,326.9,247.5,326.9 M247.5,310.4c-4.2,0-7.5,3.4-7.5,7.5c0,4.2,3.4,7.5,7.5,7.5c4.2,0,7.5-3.4,7.5-7.5
			C255,313.8,251.6,310.4,247.5,310.4"/>
		<path class="st18" d="M250.2,321.4c-0.2,0-0.4-0.1-0.5-0.2l-2.7-2.7c-0.1-0.1-0.2-0.3-0.2-0.5v-4.1c0-0.4,0.3-0.7,0.7-0.7
			c0.4,0,0.7,0.3,0.7,0.7v3.8l2.5,2.5c0.3,0.3,0.3,0.7,0,1C250.5,321.3,250.4,321.4,250.2,321.4"/>
		<path class="st18" d="M229.6,339.2h-4.1c-0.4,0-0.7-0.3-0.7-0.7v-12.3c0-0.4,0.3-0.7,0.7-0.7c4.7,0,7.1,1.6,7.2,1.6
			c0.2,0.2,0.4,0.5,0.3,0.7l-2.7,10.8C230.2,339,230,339.2,229.6,339.2 M226.2,337.8h2.9l2.5-9.8c-0.8-0.4-2.6-1.1-5.4-1.2V337.8z"
			/>
		<path class="st18" d="M242.7,341.9c-3.2,0-9.5-2.7-12.9-4.3c-0.3-0.2-0.5-0.6-0.3-0.9c0.2-0.3,0.6-0.5,0.9-0.3
			c2.7,1.3,9.3,4.2,12.3,4.2c3.3,0,11.2-3.9,13.4-5.1c-0.4-0.5-1.1-1.1-2.5-1.1c-1.3,0-2.9,0.5-4.4,1c-1.6,0.5-3.4,1.1-4.8,1.1
			c-2.8,0-6.6-1.4-6.7-1.4c-0.4-0.1-0.5-0.5-0.4-0.9c0.1-0.4,0.5-0.5,0.9-0.4c0,0,3.7,1.3,6.3,1.3c1.3,0,2.9-0.5,4.4-1
			c1.6-0.5,3.4-1.1,4.8-1.1c3.2,0,4,2.4,4.1,2.5c0.1,0.3,0,0.7-0.3,0.8C256.9,336.6,246.9,341.9,242.7,341.9"/>
		<path class="st18" d="M247.5,335.9c-0.4,0-0.7-0.3-0.7-0.7v-0.7c0-1-0.6-1.8-1.6-2l-13.2-3.2c-0.4-0.1-0.6-0.5-0.5-0.8
			c0.1-0.4,0.5-0.6,0.8-0.5l13.2,3.2c1.5,0.4,2.6,1.7,2.6,3.3v0.7C248.1,335.6,247.8,335.9,247.5,335.9"/>
	</g>
</g>
<g>
	<path class="st18" d="M50.8,252.1c0,5.4,4.4,9.8,9.8,9.8c5.4,0,9.8-4.4,9.8-9.8c0-5.4-4.4-9.8-9.8-9.8
		C55.2,242.3,50.8,246.7,50.8,252.1 M60.6,243.6c4.7,0,8.5,3.8,8.5,8.5c0,4.7-3.8,8.5-8.5,8.5c-4.7,0-8.5-3.8-8.5-8.5
		C52.1,247.4,55.9,243.6,60.6,243.6"/>
	<path class="st18" d="M54.6,250.9l2.5,2.5l-0.6,3.5c0,0.2,0.1,0.5,0.3,0.6c0.2,0.1,0.5,0.2,0.7,0.1l3.1-1.6l3.1,1.6
		c0.2,0.1,0.5,0.1,0.7-0.1c0.2-0.1,0.3-0.4,0.3-0.6l-0.6-3.5l2.5-2.5c0.2-0.2,0.2-0.4,0.2-0.7c-0.1-0.2-0.3-0.4-0.5-0.4l-3.5-0.5
		l-1.6-3.2c-0.1-0.2-0.3-0.4-0.6-0.4c-0.2,0-0.5,0.1-0.6,0.4l-1.6,3.2l-3.5,0.5c-0.2,0-0.4,0.2-0.5,0.4
		C54.3,250.5,54.4,250.8,54.6,250.9 M58.9,250.5c0.2,0,0.4-0.2,0.5-0.4l1.2-2.3l1.2,2.3c0.1,0.2,0.3,0.3,0.5,0.4l2.5,0.4l-1.8,1.8
		c-0.2,0.1-0.2,0.4-0.2,0.6l0.4,2.5l-2.3-1.2c-0.1,0-0.2-0.1-0.3-0.1c-0.1,0-0.2,0-0.3,0.1l-2.3,1.2l0.4-2.5c0-0.2,0-0.4-0.2-0.6
		l-1.8-1.8L58.9,250.5z"/>
	<path class="st18" d="M61.2,240.4c0,0.4-0.3,0.7-0.7,0.7c-0.4,0-0.7-0.3-0.7-0.7c0-0.4,0.3-0.7,0.7-0.7
		C60.9,239.7,61.2,240,61.2,240.4"/>
	<path class="st18" d="M57.5,240.1c-5.5,1.4-9.3,6.3-9.3,12c0,3.5,1.5,6.8,4.1,9.2l-3.9,6.9c-0.1,0.2-0.1,0.5,0,0.7
		c0.2,0.2,0.4,0.3,0.7,0.3l4.5-0.9l1.6,4.4c0.1,0.2,0.3,0.4,0.6,0.4c0.3,0,0.5-0.1,0.6-0.3l4.3-7.6l4.3,7.6c0.1,0.2,0.3,0.3,0.6,0.3
		c0,0,0,0,0.1,0c0.3,0,0.5-0.2,0.6-0.4l1.6-4.4l4.5,0.9c0.2,0.1,0.5,0,0.7-0.3c0.2-0.2,0.2-0.5,0-0.7l-3.9-6.9
		c2.6-2.3,4.1-5.7,4.1-9.2c0-5.7-3.8-10.6-9.3-12c-0.3-0.1-0.7,0.1-0.8,0.5c-0.1,0.3,0.1,0.7,0.5,0.8c4.9,1.3,8.3,5.7,8.3,10.7
		c0,6.2-5,11.1-11.1,11.1c-6.1,0-11.1-4.9-11.1-11.1c0-5.1,3.4-9.5,8.3-10.7c0.3-0.1,0.6-0.4,0.5-0.8
		C58.2,240.2,57.9,240,57.5,240.1 M55.8,270.8l-1.3-3.6c-0.1-0.3-0.4-0.5-0.7-0.4l-3.6,0.7l3.1-5.5c1.8,1.3,4,2.1,6.2,2.3
		L55.8,270.8z M67.4,266.8c-0.3-0.1-0.6,0.1-0.7,0.4l-1.3,3.6l-3.7-6.4c2.2-0.2,4.4-1,6.2-2.3l3.1,5.5L67.4,266.8z"/>
</g>
<path class="st40" d="M56.2,141.7c-0.3-0.1-0.7,0.1-0.8,0.4c-0.1,0.3,0.1,0.7,0.4,0.8c2.8,0.9,4.8,3.6,4.8,6.6
	c0,2.8-1.7,5.3-4.3,6.4h0c0,0,0,0,0,0c-0.8,0.3-1.7,0.5-2.6,0.5c-0.3,0-0.6,0.3-0.6,0.6c0,0.3,0.3,0.6,0.6,0.6
	c0.6,0,1.2-0.1,1.8-0.2c-0.5,1-1.5,2.5-3.1,4c-2.5,2.4-7.2,5.1-15.1,4.9c-0.3-0.3-1.4-1.1-2.4-2.7c-1.1-1.8-2.5-4.8-2.5-9.5
	c0-4.6,0.4-7.8,1.2-9.8c0.8-1.9,1.9-3,3.7-3.4c2.8-0.7,3.9-0.3,4.4,0.1c0.4,0.4,0.6,1.1,0.4,2.2c-0.2,1.4-0.7,2.3-1.3,2.7
	c-0.6,0.4-1.6,0.5-3,0.2c-0.5-0.1-1.2-0.3-1.8-0.5c-0.3-0.1-0.7,0.1-0.8,0.4c-0.1,0.3,0.1,0.6,0.4,0.8c0.4,0.1,0.9,0.3,1.4,0.4
	c0,1.5,0.4,6.2,3.3,8.3c-0.7,2.2-0.5,3.8-0.5,3.9c0,0.3,0.3,0.5,0.6,0.5c0,0,0.1,0,0.1,0c0.3-0.1,0.5-0.4,0.5-0.7
	c0,0-0.2-1.6,0.6-3.7c0,0,0,0,0,0l0,0c0.7-2,2.1-3.7,4-5c0.2,1.2,0.6,2.3,1.2,3.3c0.1,0.2,0.3,0.3,0.5,0.3c0.1,0,0.2,0,0.3-0.1
	c0.3-0.2,0.4-0.5,0.2-0.8c-0.7-1.1-1.1-2.4-1.1-3.7c0-3,1.9-5.6,4.8-6.6c0.3-0.1,0.5-0.4,0.4-0.8c-0.1-0.3-0.4-0.5-0.8-0.4
	c-3.2,1.1-5.4,4-5.6,7.4c-2.2,1.4-3.8,3.2-4.8,5.3c-2.1-1.8-2.5-5.4-2.6-6.9c1.4,0.2,2.4,0,3.2-0.5c0.9-0.6,1.5-1.7,1.8-3.5
	c0.3-1.5,0-2.6-0.7-3.3c-1-0.9-2.8-1-5.5-0.4c-2.2,0.5-3.6,1.9-4.5,4.1c-0.9,2.2-1.3,5.5-1.3,10.3c0,5,1.5,8.3,2.7,10.2
	c1.4,2.1,2.8,3,2.8,3c0.1,0.1,0.2,0.1,0.3,0.1c0.4,0,0.8,0,1.1,0c3.3,0,6.3-0.5,8.9-1.5c2.4-0.9,4.4-2.1,6.1-3.7
	c2.5-2.3,3.5-4.6,3.8-5.4c2.9-1.3,4.8-4.2,4.8-7.4C61.8,145.9,59.6,142.8,56.2,141.7"/>
<g>
	<path class="st18" d="M138.3,341.8c-3.7-0.1-7.2-1-10.2-3.3c-2.1-1.6-3.5-3.6-4.1-6.2c-0.1-0.3-0.1-0.6-0.1-0.9
		c0-0.5-0.1-0.9-0.3-1.4c-0.6-1.4,0.3-2.7,1.8-2.7c0.7,0,1.3,0.1,2,0.2c1.4,0.2,2.9,0.3,4.3-0.2c0.5-0.2,1-0.4,1.4-0.7
		c1.8-1.2,3.8-1.3,5.8-0.6c0.9,0.3,1.8,0.7,2.7,1.1c1.7,0.7,3.4,0.8,5.1,0.5c1.5-0.3,3-0.5,4.6-0.4c1.2,0.1,1.9,0.7,2.1,1.7
		c0.1,0.7,0,1.3-0.4,1.8c-0.1,0.1-0.2,0.3-0.2,0.5c-0.2,3-1.7,5.3-4,7.1c-2.3,1.9-5,2.9-7.9,3.3
		C140.2,341.8,139.3,341.8,138.3,341.8z M124.8,331c0,0.8,0.2,1.5,0.4,2.2c0.9,2.5,2.6,4.3,4.8,5.6c4,2.3,8.2,2.8,12.7,1.7
		c2.8-0.7,5.3-2,7.2-4.2c1.2-1.4,1.9-3,2.2-4.8c0-0.3,0.1-0.5-0.4-0.4c-3.8,0.4-7.6,0.6-11.5,0.6C135.1,331.7,129.9,331.5,124.8,331
		z M138.2,330.8c3.3,0,6.7-0.1,10.2-0.3c1.2-0.1,2.4-0.2,3.6-0.3c0.2,0,0.4,0,0.5-0.2c0.4-0.9-0.1-1.8-1-1.9c-0.3,0-0.6-0.1-0.9-0.1
		c-1.2,0-2.4,0.2-3.6,0.4c-2,0.3-3.9,0.2-5.7-0.6c-0.9-0.4-1.8-0.8-2.8-1.1c-1.7-0.6-3.3-0.5-4.8,0.5c-0.4,0.3-0.8,0.5-1.2,0.6
		c-1.7,0.7-3.5,0.6-5.3,0.3c-0.7-0.1-1.3-0.3-2-0.1c-0.4,0.1-0.7,0.3-0.8,0.8c-0.1,0.5,0.1,0.9,0.3,1.2c0.1,0.1,0.1,0.1,0.2,0.1
		c0.6,0.1,1.1,0.1,1.7,0.2C130.4,330.6,134.1,330.8,138.2,330.8z"/>
	<path class="st18" d="M132.6,311c0,0.4-0.1,1-0.1,1.6c-0.1,0.7,0.3,1.1,1,0.8c1.6-0.6,3.3-1.1,5-1.4c3.6-0.7,7.2,1,8.8,4.1
		c0.4,0.8,0.7,1.6,0.6,2.5c0,0.8-0.3,1.1-1,1.3c-0.4,0.1-0.6,0.3-0.6,0.6c0,0,0,0,0,0.1c-0.5,1.1-1.2,1.2-1.9,0.3
		c-0.1-0.2-0.2-0.4-0.5-0.3c-0.3,0.1-0.4,0.3-0.5,0.5c-0.1,0.3,0,0.7,0,1c0,0.3,0,0.7-0.1,1c-0.3,0.6-0.9,0.8-1.4,0.4
		c-0.4-0.3-0.8-0.4-1.2-0.5c-0.7-0.2-1-0.6-1.1-1.3c0-0.3,0-0.6,0-0.8c0-0.3-0.2-0.5-0.5-0.4c-0.4,0.1-0.8,0.2-1.2,0.3
		c-0.6,0.1-1-0.1-1.3-0.6c-0.2-0.3-0.4-0.5-0.8-0.7c-0.8-0.4-1.6-0.6-2.5-0.7c-1.8-0.2-3.4-2-3.4-3.9c0-0.9,0.1-1.9,0.2-2.8
		c0-0.4,0-0.8,0-1.2c0-0.1,0-0.3-0.2-0.2c-1,0.2-2,0.1-3,0.2c-2.2,0.1-4.5,0.2-6.7,0.4c-0.1,0-0.2,0-0.2,0c-0.3,0-0.4-0.1-0.4-0.4
		c0-0.2,0.1-0.4,0.4-0.4c0.8,0,1.6-0.1,2.4-0.1c1.6-0.1,3.1-0.2,4.7-0.2c0.2,0,0.3-0.1,0.3-0.3c0-0.8,0-1.7,0.1-2.5
		c0-0.2-0.1-0.3-0.3-0.3c-2.3-0.2-4.6-0.3-7-0.5c-0.3,0-0.5-0.1-0.5-0.4c0-0.3,0.3-0.4,0.6-0.4c3.2,0.2,6.4,0.4,9.6,0.7
		c0.7,0.1,1.5,0.2,2,0.8c0.6,0.6,0.8,1.3,1,2.1C132.6,309.8,132.6,310.3,132.6,311z M133.8,318.2c0.9,0.2,1.7,0.4,2.5,0.8
		c0.3,0.2,0.6,0.4,0.8,0.7c0.1,0.3,0.4,0.4,0.7,0.3c0.3-0.1,0.6-0.2,0.9-0.2c0.9-0.2,1.5,0.2,1.6,1.1c0,0.3,0,0.6,0,0.9
		c0,0.3,0.1,0.4,0.4,0.5c0.5,0.1,1,0.2,1.4,0.6c0.1,0.1,0.2,0.1,0.3-0.1c0.1-0.2,0.1-0.4,0.1-0.6c0-0.3,0-0.7,0-1
		c0.1-0.7,0.5-1.2,1.1-1.3c0.6-0.2,1.1,0.1,1.4,0.6c0.3,0.4,0.3,0.4,0.5-0.1c0.2-0.5,0.4-0.9,1-1.1c0.6-0.2,0.7-0.3,0.7-1
		c0-0.2-0.1-0.4-0.1-0.6c-0.7-2.7-3.5-4.8-6.4-4.9c-1.5-0.1-2.9,0.3-4.3,0.7c-0.8,0.2-1.5,0.5-2.3,0.8c0.8,0.6,1.6,0.9,2.5,1.2
		c0.5,0.2,0.8,0.5,0.7,1c-0.1,0.6-0.4,0.9-1,1C135.4,317.5,134.7,317.8,133.8,318.2z M130.6,307.5c0,0.7,0,1.4,0,2
		c0,0.2-0.1,0.4,0,0.5c0.4,0.5,0.2,1.1,0.2,1.7c0,0.9-0.1,1.9-0.2,2.8c-0.1,1.5,0.6,2.4,1.7,3.2c0.1,0.1,0.2,0.1,0.4,0
		c1.1-0.6,2.2-1.1,3.4-1.2c0.1,0,0.2,0,0.2-0.2c0-0.1-0.1-0.2-0.2-0.2c-1.5-0.3-2.6-1.4-3.9-2.1c-0.7-0.4-0.7-1.1-0.6-1.8
		c0.1-0.9,0.2-1.9,0.1-2.8C131.6,308.8,131.4,308,130.6,307.5z M129.7,308.6C129.8,308.6,129.8,308.6,129.7,308.6c0-0.3,0-0.6,0-0.9
		c0-0.3-0.1-0.5-0.4-0.5c-0.4,0-0.7,0-1.1-0.1c-0.2,0-0.3,0-0.3,0.2c0,0.8,0,1.7-0.1,2.5c0,0.2,0,0.2,0.2,0.2c0.4,0,0.8-0.1,1.3-0.1
		c0.3,0,0.4-0.2,0.4-0.4C129.7,309.2,129.7,308.9,129.7,308.6z"/>
	<path class="st18" d="M138.5,340.3c1.2,0,2.3-0.1,3.5-0.4c0.3-0.1,0.5-0.2,0.4-0.5c-0.1-0.3-0.3-0.4-0.6-0.3
		c-0.5,0.1-1,0.2-1.5,0.2c-3.3,0.4-6.4-0.2-9.3-1.9c-0.5-0.3-0.9-0.6-1.4-0.9c-0.2-0.2-0.4-0.1-0.6,0.1c-0.1,0.2-0.1,0.4,0.1,0.6
		c0.1,0.1,0.2,0.1,0.3,0.2C132.1,339.4,135.2,340.2,138.5,340.3z M126.4,333.6c0.2,0.9,0.7,1.6,1.4,2.2c0.2,0.1,0.4,0.1,0.5-0.1
		c0.1-0.2,0.1-0.4,0-0.5c-0.2-0.3-0.5-0.5-0.6-0.8c-0.2-0.3-0.3-0.6-0.4-1c-0.1-0.2-0.3-0.3-0.5-0.3
		C126.5,333.3,126.4,333.4,126.4,333.6z"/>
	<path class="st18" d="M138.5,340.3c-3.4,0-6.5-0.9-9.2-2.9c-0.1-0.1-0.2-0.1-0.3-0.2c-0.2-0.2-0.2-0.4-0.1-0.6
		c0.2-0.2,0.4-0.3,0.6-0.1c0.4,0.3,0.9,0.6,1.4,0.9c2.9,1.6,6,2.2,9.3,1.9c0.5-0.1,1-0.1,1.5-0.2c0.3-0.1,0.6,0,0.6,0.3
		c0.1,0.3-0.2,0.4-0.4,0.5C140.9,340.1,139.7,340.3,138.5,340.3z"/>
	<path class="st18" d="M126.4,333.6c0-0.2,0.1-0.4,0.3-0.4c0.2-0.1,0.4,0,0.5,0.3c0.1,0.3,0.2,0.7,0.4,1c0.2,0.3,0.4,0.5,0.6,0.8
		c0.2,0.2,0.2,0.4,0,0.5c-0.1,0.2-0.4,0.2-0.5,0.1C127,335.3,126.6,334.5,126.4,333.6z"/>
	<path class="st18" d="M136.3,329.4c0,0.3-0.2,0.4-0.4,0.4c-0.2,0-0.4-0.2-0.4-0.4c0-0.3,0.2-0.4,0.4-0.4
		C136.2,329.1,136.3,329.2,136.3,329.4z"/>
	<path class="st18" d="M128.5,329c0-0.3,0.2-0.4,0.4-0.4c0.2,0,0.4,0.2,0.4,0.4c0,0.3-0.2,0.4-0.4,0.4
		C128.6,329.4,128.5,329.2,128.5,329z"/>
	<path class="st18" d="M133.3,327.8c0.3,0,0.4,0.2,0.4,0.4c0,0.3-0.2,0.4-0.4,0.4c-0.2,0-0.4-0.2-0.4-0.4
		C132.9,328,133.1,327.9,133.3,327.8z"/>
	<path class="st18" d="M138.8,330.5c-0.2,0-0.4-0.2-0.4-0.4c0-0.3,0.2-0.4,0.4-0.4c0.2,0,0.4,0.2,0.4,0.4
		C139.2,330.3,139.1,330.4,138.8,330.5z"/>
	<path class="st18" d="M136.2,327.3c0,0.2-0.2,0.4-0.4,0.4c-0.2,0-0.4-0.2-0.4-0.4c0-0.3,0.2-0.4,0.4-0.4
		C136,326.9,136.2,327,136.2,327.3z"/>
	<path class="st18" d="M147.4,328.9c0,0.3-0.2,0.4-0.4,0.4c-0.3,0-0.4-0.2-0.4-0.4c0-0.3,0.2-0.4,0.4-0.4
		C147.2,328.5,147.4,328.7,147.4,328.9z"/>
	<path class="st18" d="M126,329.2c0.3,0,0.4,0.1,0.4,0.4c0,0.3-0.1,0.4-0.4,0.4c-0.2,0-0.4-0.1-0.4-0.4
		C125.6,329.4,125.8,329.3,126,329.2z"/>
	<path class="st18" d="M142.1,328.8c0,0.3-0.1,0.5-0.4,0.5c-0.3,0-0.4-0.1-0.4-0.4c0-0.3,0.2-0.4,0.4-0.4
		C141.9,328.4,142,328.6,142.1,328.8z"/>
	<path class="st18" d="M131.9,330c0-0.2,0.2-0.4,0.4-0.4c0.2,0,0.4,0.1,0.4,0.4c0,0.3-0.2,0.4-0.4,0.4
		C132,330.5,131.9,330.3,131.9,330z"/>
	<path class="st18" d="M138,327.3c0.3,0,0.4,0.1,0.4,0.4c0,0.2-0.2,0.4-0.4,0.4c-0.3,0-0.4-0.2-0.4-0.4
		C137.6,327.5,137.7,327.3,138,327.3z"/>
	<path class="st18" d="M150.7,329.6c0,0.3-0.1,0.4-0.4,0.4c-0.3,0-0.4-0.1-0.4-0.4c0-0.2,0.1-0.4,0.4-0.4
		C150.6,329.2,150.7,329.4,150.7,329.6z"/>
	<path class="st18" d="M144.3,330.2c-0.3,0-0.4-0.2-0.4-0.4c0-0.3,0.2-0.4,0.4-0.4c0.2,0,0.4,0.2,0.4,0.4
		C144.7,330.1,144.6,330.2,144.3,330.2z"/>
	<path class="st18" d="M141,316.4c0,0.2-0.2,0.4-0.4,0.4c-0.3,0-0.4-0.2-0.4-0.4c0-0.3,0.2-0.4,0.4-0.4
		C140.9,316,141,316.1,141,316.4z"/>
	<path class="st18" d="M146,316.9c0,0.3-0.2,0.4-0.4,0.4c-0.2,0-0.4-0.2-0.4-0.4c0-0.2,0.1-0.4,0.4-0.4
		C145.8,316.5,145.9,316.6,146,316.9z"/>
	<path class="st18" d="M138.1,314.4c0.3,0,0.4,0.2,0.4,0.4c0,0.3-0.2,0.4-0.4,0.4c-0.3,0-0.4-0.2-0.4-0.4
		C137.7,314.5,137.9,314.4,138.1,314.4z"/>
	<path class="st18" d="M142.1,320c-0.3,0-0.4-0.1-0.4-0.4c0-0.3,0.1-0.4,0.4-0.4c0.2,0,0.4,0.2,0.4,0.4
		C142.4,319.8,142.3,320,142.1,320z"/>
	<path class="st18" d="M144.1,315.2c0,0.3-0.2,0.4-0.4,0.4c-0.3,0-0.4-0.1-0.4-0.4c0-0.3,0.1-0.4,0.4-0.4
		C143.9,314.8,144,314.9,144.1,315.2z"/>
	<path class="st18" d="M143.2,317.1c0.2,0,0.4,0.1,0.4,0.4c0,0.3-0.1,0.4-0.4,0.4c-0.3,0-0.4-0.2-0.4-0.4
		C142.8,317.3,143,317.2,143.2,317.1z"/>
	<path class="st18" d="M140.9,314.8c-0.3,0-0.4-0.1-0.4-0.4c0-0.3,0.1-0.4,0.4-0.4c0.2,0,0.4,0.1,0.4,0.4
		C141.3,314.6,141.1,314.8,140.9,314.8z"/>
	<path class="st18" d="M137.7,317.3c0-0.2,0.1-0.4,0.4-0.4c0.3,0,0.4,0.2,0.4,0.4c0,0.2-0.1,0.4-0.4,0.4
		C137.9,317.7,137.8,317.5,137.7,317.3z"/>
	<path class="st18" d="M139.3,318.8c0-0.2,0.2-0.4,0.4-0.4c0.3,0,0.4,0.2,0.4,0.4c0,0.3-0.2,0.4-0.4,0.4
		C139.5,319.2,139.3,319.1,139.3,318.8z"/>
</g>
<g>
	<g>
		<g>
			<g>
				<path class="st18" d="M97.2,47.1c-4.5,0-8.9,1.7-12.3,5.1c-6.6,6.7-6.6,17.6,0,24.3l0,0l0,0c0,0,0.1,0.1,0.1,0.1l0,0l0,0
					c3.3,3.2,7.6,5,12.1,5c0,0,0.1,0,0.1,0c4.6,0,8.9-1.8,12.2-5.1c6.6-6.7,6.6-17.6,0-24.3l0,0c0,0-0.1-0.1-0.1-0.1l0,0
					C106,48.7,101.6,47.1,97.2,47.1z M97.3,80.2C97.3,80.2,97.3,80.2,97.3,80.2c-3.8,0-7.5-1.4-10.3-3.8l-0.3-0.3L109,53.7l0.3,0.3
					c5.7,6.6,5,16.6-1.6,22.3l0,0C104.7,78.8,101.1,80.2,97.3,80.2z M85.6,75l-0.3-0.3c-5.7-6.6-5-16.6,1.6-22.3l0,0
					c2.9-2.5,6.5-3.8,10.3-3.8c0,0,0,0,0,0c3.8,0,7.5,1.4,10.3,3.8l0.3,0.3L85.6,75z"/>
			</g>
		</g>
	</g>
	<g>
		<path class="st41" d="M102.3,74.7H93c-0.8,0-1.5-0.6-1.5-1.4l-0.8-13.9c0-0.2,0.1-0.3,0.3-0.3c0,0,0,0,0,0h13.4
			c0.2,0,0.3,0.1,0.3,0.3c0,0,0,0,0,0l-0.8,13.9C103.7,74.1,103.1,74.7,102.3,74.7z M91.2,59.7L92,73.2c0,0.5,0.4,0.9,0.9,0.9h9.3
			c0.5,0,0.9-0.4,0.9-0.9l0.8-13.6L91.2,59.7z"/>
		<path class="st41" d="M105.2,59.7H90.1c-0.2,0-0.3-0.1-0.3-0.3v-1.2c0-1.2,0.9-2.1,2.1-2.1h11.5c1.2,0,2.1,0.9,2.1,2.1v1.2
			C105.5,59.5,105.3,59.7,105.2,59.7L105.2,59.7L105.2,59.7z M90.4,59.1h14.5v-1c0-0.8-0.7-1.5-1.5-1.5H91.9c-0.8,0-1.5,0.7-1.5,1.5
			L90.4,59.1z"/>
		<path class="st41" d="M100.3,56.6h-5.4c-0.2,0-0.3-0.1-0.3-0.3v-1c0-0.7,0.5-1.2,1.2-1.2h3.6c0.7,0,1.2,0.5,1.2,1.2v1
			C100.6,56.5,100.5,56.6,100.3,56.6z M95.2,56h4.8v-0.7c0-0.3-0.3-0.6-0.6-0.6h-3.6c-0.3,0-0.6,0.3-0.6,0.6V56z"/>
		<path class="st41" d="M100.6,71.7c-0.2,0-0.3-0.1-0.3-0.3v-8.7c0-0.2,0.1-0.3,0.3-0.3c0.2,0,0.3,0.1,0.3,0.3v8.7
			C100.9,71.5,100.7,71.7,100.6,71.7z"/>
		<path class="st41" d="M97.6,71.7c-0.2,0-0.3-0.1-0.3-0.3v-8.7c0-0.2,0.1-0.3,0.3-0.3c0.2,0,0.3,0.1,0.3,0.3v8.7
			C97.9,71.5,97.8,71.7,97.6,71.7z"/>
		<path class="st41" d="M94.6,71.7c-0.2,0-0.3-0.1-0.3-0.3v-8.7c0-0.2,0.1-0.3,0.3-0.3c0.2,0,0.3,0.1,0.3,0.3v8.7
			C94.9,71.5,94.8,71.7,94.6,71.7z"/>
	</g>
</g>
</svg>
